<?xml version="1.0" encoding="UTF-8" standalone="no"?>
<!DOCTYPE svg PUBLIC "-//W3C//DTD SVG 20010904//EN"
              "http://www.w3.org/TR/2001/REC-SVG-20010904/DTD/svg10.dtd">

<svg xmlns="http://www.w3.org/2000/svg"
     width="3.33333in" height="3.33333in"
     viewBox="0 0 1000 1000">
  <path id="Sélection #50"
        fill="none" stroke="black" stroke-width="1"
        d="M 588.00,151.59
           C 629.48,151.93 665.03,170.21 696.00,196.87
             707.15,206.47 717.55,217.02 726.14,229.00
             739.02,246.97 750.73,269.32 751.00,292.00
             751.20,309.45 749.69,325.57 740.55,341.00
             731.97,355.48 725.03,359.38 711.00,367.42
             689.53,379.73 678.83,383.96 654.00,385.04
             648.85,385.26 646.87,386.39 641.00,385.83
             621.84,384.01 608.10,377.38 592.00,367.56
             592.00,367.56 582.00,362.57 582.00,362.57
             582.00,362.57 567.00,349.34 567.00,349.34
             561.16,344.71 559.29,347.01 554.10,341.89
             546.78,334.66 548.79,325.56 554.61,318.04
             557.40,314.43 562.16,310.76 567.00,311.73
             574.22,313.16 577.68,318.63 581.21,321.20
             581.21,321.20 593.00,328.04 593.00,328.04
             593.00,328.04 603.00,331.96 603.00,331.96
             618.70,340.49 629.42,349.52 648.00,352.13
             651.37,352.60 653.52,353.12 657.00,352.83
             672.19,351.53 679.06,345.74 692.00,339.25
             707.84,331.30 715.78,320.03 716.00,302.00
             716.33,273.24 703.80,254.89 684.00,235.00
             658.69,209.58 623.11,186.57 586.00,187.00
             577.75,187.10 566.34,190.72 558.00,192.58
             558.00,192.58 527.00,199.58 527.00,199.58
             527.00,199.58 508.00,203.91 508.00,203.91
             508.00,203.91 495.00,208.85 495.00,208.85
             495.00,208.85 470.00,214.42 470.00,214.42
             470.00,214.42 421.00,225.65 421.00,225.65
             421.00,225.65 377.00,235.65 377.00,235.65
             377.00,235.65 351.00,241.56 351.00,241.56
             351.00,241.56 334.00,243.42 334.00,243.42
             334.00,243.42 295.00,252.12 295.00,252.12
             295.00,252.12 258.00,260.35 258.00,260.35
             237.75,264.93 220.99,266.83 205.00,282.04
             201.97,284.92 197.16,289.58 194.97,293.00
             189.41,301.64 185.03,322.62 185.03,333.00
             185.03,337.30 186.87,350.60 187.89,355.00
             191.83,372.10 199.19,384.27 206.14,400.00
             214.37,418.62 222.76,446.63 223.00,467.00
             223.24,487.83 221.44,511.63 210.55,530.00
             203.66,541.62 197.99,544.41 187.00,551.00
             173.65,559.01 158.81,564.82 143.00,564.82
             143.00,564.82 136.00,564.09 136.00,564.09
             130.21,563.66 125.66,563.49 120.00,561.64
             105.42,556.89 89.86,545.68 79.09,534.91
             79.09,534.91 71.96,527.00 71.96,527.00
             71.96,527.00 53.83,508.00 53.83,508.00
             53.83,508.00 33.43,486.00 33.43,486.00
             23.57,472.63 41.54,451.58 56.00,453.20
             63.50,454.04 75.45,468.45 81.00,474.00
             81.00,474.00 105.00,497.04 105.00,497.04
             114.47,506.09 122.40,514.61 135.00,519.54
             146.07,523.87 149.21,520.14 159.00,515.25
             163.55,512.97 168.06,511.31 171.03,506.96
             175.28,500.73 176.96,489.46 177.00,482.00
             177.00,482.00 177.00,472.00 177.00,472.00
             176.84,458.62 171.02,436.34 165.71,424.00
             165.71,424.00 153.81,398.00 153.81,398.00
             148.91,385.10 144.16,361.79 144.00,348.00
             143.67,319.41 148.95,303.58 163.00,279.00
             175.44,257.24 184.72,246.29 207.00,233.86
             222.58,225.17 238.82,221.37 256.00,217.58
             256.00,217.58 326.00,202.53 326.00,202.53
             326.00,202.53 345.00,195.90 345.00,195.90
             345.00,195.90 357.00,193.58 357.00,193.58
             357.00,193.58 398.00,185.00 398.00,185.00
             398.00,185.00 485.00,167.43 485.00,167.43
             485.00,167.43 503.00,165.56 503.00,165.56
             503.00,165.56 573.00,152.29 573.00,152.29
             573.00,152.29 588.00,151.59 588.00,151.59 Z
           M 501.00,187.00
           C 499.85,184.33 499.82,184.59 497.00,185.00
             497.00,185.00 501.00,187.00 501.00,187.00 Z
           M 496.00,188.00
           C 488.99,186.96 486.95,184.06 480.00,189.00
             480.00,189.00 484.00,189.00 484.00,189.00
             484.00,189.00 481.00,197.00 481.00,197.00
             486.15,194.88 486.85,193.30 488.00,188.00
             488.00,188.00 493.00,192.00 493.00,192.00
             493.00,192.00 495.00,192.00 495.00,192.00
             495.00,192.00 496.00,188.00 496.00,188.00 Z
           M 477.00,189.00
           C 477.00,189.00 470.00,191.00 470.00,191.00
             470.00,191.00 474.00,197.00 474.00,197.00
             474.00,197.00 478.00,194.00 478.00,194.00
             478.00,194.00 474.00,193.00 474.00,193.00
             474.00,193.00 477.00,189.00 477.00,189.00 Z
           M 490.00,195.00
           C 489.11,197.99 489.47,198.32 492.00,200.00
             492.00,200.00 490.00,195.00 490.00,195.00 Z
           M 498.00,195.00
           C 498.00,195.00 496.00,195.00 496.00,195.00
             496.00,195.00 495.00,198.00 495.00,198.00
             495.00,198.00 499.00,199.00 499.00,199.00
             499.00,199.00 498.00,195.00 498.00,195.00 Z
           M 484.00,199.00
           C 484.00,199.00 481.00,200.00 481.00,200.00
             481.00,200.00 481.00,202.00 481.00,202.00
             481.00,202.00 484.00,203.00 484.00,203.00
             484.00,203.00 484.00,199.00 484.00,199.00 Z
           M 369.01,224.00
           C 369.01,224.00 388.00,220.29 388.00,220.29
             395.07,219.40 392.48,220.33 400.00,218.05
             402.48,217.30 410.08,215.43 411.69,214.15
             412.79,213.26 413.35,212.33 413.67,210.95
             414.90,205.54 409.15,204.34 405.00,203.92
             400.25,203.44 384.26,210.14 379.00,211.78
             376.19,212.66 370.71,213.13 369.01,215.51
             367.31,217.92 368.28,221.45 369.01,224.00 Z
           M 420.00,203.00
           C 420.00,203.00 420.00,207.00 420.00,207.00
             420.00,207.00 420.00,203.00 420.00,203.00 Z
           M 383.00,229.00
           C 383.00,229.00 376.00,232.00 376.00,232.00
             376.00,232.00 383.00,231.00 383.00,231.00
             383.00,231.00 383.00,229.00 383.00,229.00 Z" />
</svg>