<?xml version="1.0" encoding="UTF-8" standalone="no"?>
<!DOCTYPE svg PUBLIC "-//W3C//DTD SVG 20010904//EN"
              "http://www.w3.org/TR/2001/REC-SVG-20010904/DTD/svg10.dtd">

<svg xmlns="http://www.w3.org/2000/svg"
     width="3.33333in" height="3.33333in"
     viewBox="0 0 1000 1000">
  <path id="Sélection #50"
        fill="none" stroke="black" stroke-width="1"
        d="M 368.00,138.42
           C 388.91,135.88 413.61,140.38 433.00,148.20
             437.93,150.19 447.95,154.41 452.00,157.30
             470.71,170.66 477.84,183.25 490.88,201.00
             490.88,201.00 511.34,230.00 511.34,230.00
             513.75,233.53 519.08,240.34 520.30,244.00
             521.39,247.28 520.82,252.31 521.17,256.00
             521.17,256.00 523.00,279.00 523.00,279.00
             523.00,279.00 524.91,305.00 524.91,305.00
             525.33,311.13 524.72,319.09 526.99,325.00
             526.99,325.00 545.14,354.00 545.14,354.00
             553.27,368.58 555.97,375.18 556.00,392.00
             556.00,392.00 556.91,407.00 556.91,407.00
             556.18,419.82 549.01,447.16 542.52,458.00
             542.52,458.00 535.88,467.00 535.88,467.00
             522.14,485.02 524.04,480.52 507.00,493.65
             498.89,499.90 482.58,512.74 474.00,517.18
             474.00,517.18 461.00,522.72 461.00,522.72
             451.42,526.85 426.76,535.89 417.00,536.80
             411.39,537.33 408.62,534.69 405.00,535.69
             402.57,536.35 400.47,538.60 398.00,539.84
             395.38,541.17 387.05,542.76 384.00,542.90
             381.14,543.03 373.63,542.01 371.00,541.01
             368.51,540.07 365.50,537.80 363.00,537.69
             360.21,537.57 357.56,539.76 355.00,540.78
             352.04,541.96 349.15,542.08 346.00,541.96
             342.88,541.84 336.79,540.83 334.00,539.58
             330.96,538.21 329.32,536.12 326.00,535.31
             322.90,534.56 318.42,535.63 312.00,534.10
             308.38,533.24 301.08,531.21 298.00,529.47
             294.21,527.32 292.10,524.67 288.00,522.80
             281.55,519.85 277.41,520.26 270.02,515.53
             263.10,511.12 264.55,507.99 260.73,504.42
             255.68,499.69 252.93,503.29 244.29,493.00
             233.94,480.67 229.46,463.32 225.63,448.00
             222.71,436.33 221.73,431.00 220.91,419.00
             220.91,419.00 220.26,412.00 220.26,412.00
             220.40,408.45 223.07,399.81 224.14,396.00
             227.35,384.62 227.77,380.67 232.40,369.00
             234.05,364.83 239.45,350.68 239.80,347.00
             239.80,347.00 237.28,327.00 237.28,327.00
             237.28,327.00 230.72,278.00 230.72,278.00
             229.83,271.39 227.54,260.32 228.17,254.00
             228.92,246.47 231.43,244.13 235.19,238.00
             235.19,238.00 249.68,215.00 249.68,215.00
             256.35,204.42 268.98,183.10 277.04,175.04
             291.30,160.78 324.14,145.98 344.00,141.67
             344.00,141.67 368.00,138.42 368.00,138.42 Z
           M 430.00,195.00
           C 430.63,189.92 428.98,188.59 424.00,189.00
             425.52,192.99 426.22,193.17 430.00,195.00 Z
           M 465.14,247.00
           C 460.26,249.71 451.63,258.31 449.00,263.03
             449.86,263.06 450.31,263.44 452.00,263.03
             455.69,262.21 464.30,254.67 465.14,251.00
             465.75,249.28 465.32,248.56 465.14,247.00 Z
           M 292.00,270.00
           C 292.00,270.00 285.17,265.41 285.17,265.41
             279.99,261.28 275.56,255.91 269.00,254.00
             271.42,264.12 281.60,270.04 291.00,273.00
             291.00,273.00 292.00,272.00 292.00,272.00
             292.00,272.00 292.00,270.00 292.00,270.00 Z
           M 475.00,280.00
           C 468.45,280.87 466.04,280.29 464.00,287.00
             471.61,291.11 475.78,289.10 475.00,280.00 Z
           M 275.00,306.00
           C 271.41,297.24 276.24,296.87 274.38,292.15
             273.43,289.71 270.59,288.72 268.15,289.33
             264.96,290.14 265.66,292.61 266.41,295.00
             268.13,300.50 269.73,303.45 275.00,306.00 Z
           M 278.00,446.00
           C 269.23,441.18 267.35,430.94 254.00,427.00
             254.00,427.00 253.00,428.00 253.00,428.00
             256.63,438.07 258.36,441.72 267.00,448.37
             272.27,452.43 276.29,453.76 278.00,446.00 Z" />
</svg>