<?xml version="1.0" encoding="UTF-8" standalone="no"?>
<!DOCTYPE svg PUBLIC "-//W3C//DTD SVG 20010904//EN"
              "http://www.w3.org/TR/2001/REC-SVG-20010904/DTD/svg10.dtd">

<svg xmlns="http://www.w3.org/2000/svg"
     width="3.33333in" height="3.33333in"
     viewBox="0 0 1000 1000">
  <path id="Sélection #50"
        fill="none" stroke="black" stroke-width="1"
        d="M 414.00,435.44
           C 430.80,433.29 464.28,439.61 482.00,442.59
             497.39,445.17 540.19,452.94 553.00,453.00
             559.05,453.03 565.05,454.08 571.00,455.08
             571.00,455.08 611.00,461.43 611.00,461.43
             611.00,461.43 637.00,464.85 637.00,464.85
             644.42,464.73 647.56,456.41 661.00,450.31
             672.42,445.12 685.64,442.60 698.00,445.29
             698.00,445.29 707.00,448.08 707.00,448.08
             714.79,450.16 718.43,449.67 726.00,454.55
             743.39,465.75 750.97,492.24 751.00,512.00
             751.00,512.00 751.00,526.00 751.00,526.00
             750.90,534.59 747.97,545.79 745.34,554.00
             739.61,571.88 731.58,590.16 715.00,600.67
             704.87,607.10 698.30,607.39 687.00,608.09
             687.00,608.09 677.00,608.75 677.00,608.75
             660.66,607.82 651.65,607.14 639.00,594.96
             635.26,591.36 631.90,587.37 629.09,583.00
             627.51,580.53 625.62,576.31 623.61,574.51
             621.67,572.77 619.46,572.32 617.00,571.81
             617.00,571.81 557.00,561.72 557.00,561.72
             557.00,561.72 466.00,547.27 466.00,547.27
             466.00,547.27 421.00,540.41 421.00,540.41
             412.67,539.02 402.37,537.74 395.00,533.47
             386.54,528.58 381.72,520.66 377.86,512.00
             374.79,505.10 373.09,501.70 373.00,494.00
             373.00,494.00 373.00,485.00 373.00,485.00
             373.08,469.04 380.86,452.15 394.00,442.79
             399.96,438.54 406.92,436.75 414.00,435.44 Z
           M 680.00,472.00
           C 674.64,474.63 661.23,483.09 659.96,489.00
             659.52,491.06 660.28,492.22 661.00,494.00
             666.96,490.64 678.13,478.59 680.00,472.00 Z
           M 681.00,488.00
           C 675.05,492.95 675.15,498.85 674.26,506.00
             673.29,513.71 671.95,521.19 672.00,529.00
             672.02,532.72 671.74,533.93 674.00,537.00
             674.00,537.00 678.36,506.00 678.36,506.00
             679.47,500.73 682.11,493.12 681.00,488.00 Z
           M 652.00,548.00
           C 653.23,547.57 654.05,547.62 654.98,546.41
             656.67,544.19 655.74,534.52 656.32,531.00
             656.32,531.00 658.34,523.06 658.34,523.06
             658.46,521.21 657.61,518.98 655.37,520.17
             652.00,521.96 651.54,529.68 651.24,533.00
             651.24,533.00 651.24,542.00 651.24,542.00
             651.14,544.33 651.46,545.76 652.00,548.00 Z
           M 732.00,549.00
           C 740.62,547.53 740.87,538.15 741.72,531.00
             741.99,528.68 742.50,523.33 740.40,521.74
             737.88,519.84 734.68,523.47 733.00,525.00
             725.73,519.78 727.44,530.35 727.22,534.00
             727.22,534.00 727.22,539.00 727.22,539.00
             727.22,539.00 733.00,534.00 733.00,534.00
             733.00,534.00 732.00,549.00 732.00,549.00 Z
           M 716.00,544.00
           C 711.91,546.19 711.22,547.41 712.00,552.00
             715.15,549.00 715.29,548.24 716.00,544.00 Z" />
</svg>