<?xml version="1.0" encoding="UTF-8" standalone="no"?>
<!DOCTYPE svg PUBLIC "-//W3C//DTD SVG 20010904//EN"
              "http://www.w3.org/TR/2001/REC-SVG-20010904/DTD/svg10.dtd">

<svg xmlns="http://www.w3.org/2000/svg"
     width="3.33333in" height="3.33333in"
     viewBox="0 0 1000 1000">
  <path id="Sélection #50"
        fill="none" stroke="black" stroke-width="1"
        d="M 358.00,500.00
           C 356.77,507.81 350.60,511.28 357.43,519.96
             363.86,528.13 376.60,526.00 386.00,526.00
             386.00,526.00 459.00,526.00 459.00,526.00
             459.00,526.00 560.00,526.00 560.00,526.00
             560.00,526.00 575.00,525.00 575.00,525.00
             575.00,525.00 758.00,525.00 758.00,525.00
             758.00,525.00 773.00,524.00 773.00,524.00
             773.00,524.00 809.00,524.00 809.00,524.00
             810.99,524.00 814.81,523.77 816.40,525.02
             818.59,526.76 818.59,533.24 816.40,534.98
             814.81,536.23 810.99,536.00 809.00,536.00
             809.00,536.00 688.00,536.00 688.00,536.00
             688.00,536.00 673.00,537.00 673.00,537.00
             673.00,537.00 470.00,537.00 470.00,537.00
             470.00,537.00 455.00,538.00 455.00,538.00
             455.00,538.00 375.00,538.00 375.00,538.00
             366.32,537.99 356.47,536.56 350.21,529.90
             344.13,523.42 343.57,513.82 341.70,510.09
             340.21,507.10 337.13,505.14 338.82,502.26
             341.71,497.35 353.36,499.17 358.00,500.00 Z" />
</svg>