<?xml version="1.0" encoding="UTF-8" standalone="no"?>
<!DOCTYPE svg PUBLIC "-//W3C//DTD SVG 20010904//EN"
              "http://www.w3.org/TR/2001/REC-SVG-20010904/DTD/svg10.dtd">

<svg xmlns="http://www.w3.org/2000/svg"
     width="3.33333in" height="3.33333in"
     viewBox="0 0 1000 1000">
  <path id="Sélection #50"
        fill="none" stroke="black" stroke-width="1"
        d="M 344.00,327.00
           C 338.45,319.27 329.89,315.25 323.21,308.65
             323.21,308.65 303.61,284.09 303.61,284.09
             303.61,284.09 288.23,269.00 288.23,269.00
             281.23,260.50 285.40,246.07 298.00,247.56
             304.52,248.33 320.82,258.47 327.00,262.26
             330.56,264.44 336.81,268.40 341.00,268.23
             341.00,268.23 356.00,264.09 356.00,264.09
             356.00,264.09 364.00,262.26 364.00,262.26
             364.00,262.26 378.00,257.54 378.00,257.54
             378.00,257.54 384.00,256.47 384.00,256.47
             384.00,256.47 395.00,253.38 395.00,253.38
             395.00,253.38 439.00,239.52 439.00,239.52
             439.00,239.52 514.00,216.79 514.00,216.79
             514.00,216.79 529.00,211.54 529.00,211.54
             529.00,211.54 536.00,210.13 536.00,210.13
             536.00,210.13 582.00,195.78 582.00,195.78
             582.00,195.78 641.00,179.17 641.00,179.17
             641.00,179.17 697.00,163.44 697.00,163.44
             708.82,160.05 733.27,152.57 745.00,153.10
             748.35,153.26 757.16,154.90 760.00,156.42
             760.00,156.42 774.00,166.42 774.00,166.42
             774.00,166.42 780.00,168.00 780.00,168.00
             779.48,170.11 778.43,172.84 779.23,174.95
             780.07,177.16 783.53,179.55 785.42,181.05
             790.32,184.91 801.75,189.69 808.00,192.94
             812.19,195.11 818.27,198.62 823.00,198.94
             828.59,199.32 834.66,195.48 837.70,196.65
             841.80,198.23 842.24,208.45 844.17,211.95
             847.64,218.22 855.03,217.04 861.00,217.00
             861.00,217.00 879.00,217.00 879.00,217.00
             886.68,217.01 886.96,217.36 894.00,220.42
             911.36,227.97 914.91,244.07 917.75,261.00
             919.16,269.36 919.99,267.64 920.00,277.00
             920.00,277.00 920.00,334.00 920.00,334.00
             920.00,334.00 918.09,356.00 918.09,356.00
             918.09,356.00 916.91,381.00 916.91,381.00
             916.91,381.00 915.09,400.00 915.09,400.00
             915.09,400.00 907.83,500.00 907.83,500.00
             907.83,500.00 904.72,531.00 904.72,531.00
             904.72,531.00 901.17,558.00 901.17,558.00
             901.17,558.00 896.29,599.00 896.29,599.00
             896.29,599.00 890.43,646.00 890.43,646.00
             888.27,661.02 887.47,676.50 882.79,691.00
             878.43,704.47 870.23,719.16 859.83,728.86
             853.12,735.11 832.59,747.84 824.00,753.23
             824.00,753.23 774.00,784.70 774.00,784.70
             763.45,791.26 740.22,806.28 729.00,808.76
             726.10,809.10 722.95,809.00 720.00,808.76
             714.06,808.99 711.34,808.99 706.00,805.88
             703.77,804.58 699.06,800.21 696.76,800.71
             695.01,801.09 687.34,811.12 686.43,813.04
             684.70,816.66 684.30,832.10 683.91,837.00
             683.91,837.00 682.32,845.00 682.32,845.00
             682.32,845.00 681.00,861.00 681.00,861.00
             681.00,861.00 678.28,887.00 678.28,887.00
             677.67,892.07 678.30,895.29 675.03,899.83
             669.02,908.17 653.39,909.02 650.55,896.00
             650.55,896.00 651.29,879.00 651.29,879.00
             652.35,865.87 654.29,864.55 656.56,853.00
             656.56,853.00 657.38,845.00 657.38,845.00
             657.38,845.00 659.17,832.00 659.17,832.00
             659.17,832.00 660.43,822.02 660.43,822.02
             660.27,813.37 648.68,820.77 646.85,810.00
             646.85,810.00 649.00,775.00 649.00,775.00
             649.00,775.00 649.63,759.00 649.63,759.00
             649.15,750.34 645.80,742.14 643.07,734.00
             643.07,734.00 632.88,703.00 632.88,703.00
             632.17,700.75 629.71,692.02 628.11,690.91
             625.68,689.24 615.71,696.10 613.00,697.53
             604.60,701.97 589.82,711.46 581.00,712.89
             581.00,712.89 570.00,712.89 570.00,712.89
             563.92,712.92 559.99,711.89 555.09,708.07
             552.78,706.28 548.80,701.19 546.10,701.20
             541.33,701.21 542.06,709.96 541.99,713.00
             541.99,713.00 541.09,722.00 541.09,722.00
             541.09,722.00 539.91,743.00 539.91,743.00
             539.91,743.00 539.04,751.00 539.04,751.00
             539.04,751.00 539.99,765.00 539.99,765.00
             539.99,765.00 539.00,781.00 539.00,781.00
             538.98,785.15 538.77,790.29 536.70,793.98
             534.50,797.92 527.66,802.35 523.00,801.65
             520.89,801.33 518.77,799.95 517.09,798.69
             515.32,797.36 513.76,795.98 512.92,793.91
             510.84,789.33 512.86,781.04 512.92,776.00
             512.92,776.00 518.00,724.00 518.00,724.00
             518.00,724.00 518.00,712.00 518.00,712.00
             509.68,714.02 500.13,714.41 500.82,703.00
             500.82,703.00 502.00,691.00 502.00,691.00
             502.00,691.00 503.83,657.00 503.83,657.00
             502.84,645.22 500.29,640.84 496.74,630.00
             496.74,630.00 474.59,565.00 474.59,565.00
             474.59,565.00 437.95,451.00 437.95,451.00
             437.95,451.00 436.26,444.00 436.26,444.00
             436.26,444.00 428.62,421.00 428.62,421.00
             428.62,421.00 411.00,366.00 411.00,366.00
             408.68,366.69 406.45,367.60 404.04,366.64
             397.96,364.23 400.07,357.56 390.00,359.90
             390.00,359.90 331.00,374.50 331.00,374.50
             331.00,374.50 289.00,384.35 289.00,384.35
             268.85,390.64 257.66,400.09 235.00,405.42
             235.00,405.42 206.00,411.90 206.00,411.90
             206.00,411.90 194.00,415.20 194.00,415.20
             190.00,416.04 181.55,418.69 178.01,417.40
             168.87,414.04 168.89,395.03 175.39,389.58
             177.76,387.59 189.32,385.47 193.00,384.46
             203.54,381.59 225.28,372.35 235.00,373.34
             237.79,373.62 248.71,376.14 250.86,377.52
             254.08,379.60 253.97,381.42 256.30,383.59
             260.83,387.82 265.51,387.53 271.00,386.00
             271.00,386.00 271.00,384.00 271.00,384.00
             257.78,379.55 260.80,375.60 250.00,375.00
             250.00,375.00 250.00,373.00 250.00,373.00
             250.00,373.00 259.00,373.00 259.00,373.00
             259.00,373.00 294.00,366.24 294.00,366.24
             294.00,366.24 302.00,363.61 302.00,363.61
             302.00,363.61 309.00,362.47 309.00,362.47
             309.00,362.47 315.00,360.60 315.00,360.60
             315.00,360.60 325.00,358.76 325.00,358.76
             325.00,358.76 340.00,354.59 340.00,354.59
             340.00,354.59 347.00,353.47 347.00,353.47
             347.00,353.47 369.00,348.00 369.00,348.00
             367.80,340.60 363.91,339.14 357.00,340.45
             357.00,340.45 316.00,349.80 316.00,349.80
             316.00,349.80 250.00,363.73 250.00,363.73
             246.24,364.27 241.73,365.12 238.00,365.02
             231.76,364.55 226.35,362.83 220.00,365.02
             213.35,367.54 203.52,375.11 197.00,378.69
             183.31,386.21 179.43,386.22 165.00,389.65
             161.29,390.53 153.48,393.06 150.00,392.77
             136.34,391.61 138.84,367.77 147.18,363.70
             147.18,363.70 162.00,360.12 162.00,360.12
             162.00,360.12 184.00,356.09 184.00,356.09
             184.00,356.09 196.00,356.82 196.00,356.82
             199.49,356.57 201.01,355.87 205.00,356.09
             205.00,356.09 214.00,356.99 214.00,356.99
             225.60,357.26 223.81,354.81 234.00,351.71
             234.00,351.71 242.00,349.96 242.00,349.96
             242.00,349.96 250.00,347.53 250.00,347.53
             250.00,347.53 257.00,346.63 257.00,346.63
             257.00,346.63 263.00,345.17 263.00,345.17
             263.00,345.17 305.00,335.67 305.00,335.67
             305.00,335.67 325.00,331.49 325.00,331.49
             325.00,331.49 332.00,329.36 332.00,329.36
             332.00,329.36 344.00,327.00 344.00,327.00 Z
           M 728.00,179.00
           C 725.65,177.72 723.74,176.55 721.00,176.25
             716.46,175.75 696.44,182.09 691.00,183.84
             691.00,183.84 650.00,195.57 650.00,195.57
             650.00,195.57 608.00,208.00 608.00,208.00
             608.00,208.00 608.00,210.00 608.00,210.00
             610.12,210.88 612.72,212.18 615.00,212.29
             618.60,212.47 633.77,207.15 639.00,205.87
             639.00,205.87 671.00,196.37 671.00,196.37
             671.00,196.37 688.00,192.03 688.00,192.03
             688.00,192.03 695.00,189.54 695.00,189.54
             703.12,187.31 721.60,183.21 728.00,179.00 Z
           M 412.00,268.00
           C 414.92,273.18 417.94,272.18 423.00,270.67
             423.00,270.67 443.00,264.36 443.00,264.36
             443.00,264.36 459.00,260.17 459.00,260.17
             459.00,260.17 474.00,254.68 474.00,254.68
             474.00,254.68 480.00,253.63 480.00,253.63
             480.00,253.63 491.00,250.43 491.00,250.43
             491.00,250.43 541.00,235.49 541.00,235.49
             541.00,235.49 569.00,226.80 569.00,226.80
             571.27,226.22 576.62,224.85 574.83,221.17
             573.23,218.13 567.50,220.26 565.00,221.17
             565.00,221.17 536.00,229.72 536.00,229.72
             536.00,229.72 511.00,237.80 511.00,237.80
             511.00,237.80 477.00,247.78 477.00,247.78
             477.00,247.78 470.00,250.52 470.00,250.52
             470.00,250.52 447.00,256.77 447.00,256.77
             447.00,256.77 412.00,268.00 412.00,268.00 Z
           M 787.00,232.00
           C 787.00,232.00 795.00,234.51 795.00,234.51
             803.71,236.69 803.80,229.76 801.40,227.70
             799.48,226.05 790.46,228.72 788.51,230.11
             787.21,231.04 787.47,231.32 787.00,232.00 Z
           M 784.00,232.00
           C 784.00,232.00 781.00,232.00 781.00,232.00
             781.00,232.00 780.00,242.00 780.00,242.00
             785.13,240.20 784.00,236.81 784.00,232.00 Z
           M 830.00,249.00
           C 833.61,258.79 845.74,253.91 846.00,268.00
             846.08,272.61 847.34,281.20 841.94,283.04
             837.52,284.55 828.99,279.00 825.00,276.90
             825.00,276.90 809.00,268.58 809.00,268.58
             798.88,263.37 792.61,258.83 781.11,264.80
             774.08,268.45 774.71,286.78 773.00,294.00
             771.83,298.94 771.32,305.84 770.79,311.00
             770.79,312.61 770.09,316.21 770.79,317.56
             772.32,321.49 779.35,317.42 782.00,316.62
             782.00,316.62 815.00,305.66 815.00,305.66
             815.00,305.66 872.00,285.50 872.00,285.50
             877.67,283.73 895.17,278.83 898.39,274.62
             900.41,271.97 899.08,266.43 899.00,263.00
             898.79,253.98 895.21,239.79 886.00,236.01
             883.30,234.90 879.89,234.94 877.00,235.01
             871.07,235.16 869.45,236.42 864.00,237.77
             864.00,237.77 830.00,249.00 830.00,249.00 Z
           M 701.00,257.00
           C 704.54,258.87 711.47,263.50 715.00,263.82
             719.22,264.20 721.13,262.37 724.58,261.25
             724.58,261.25 730.01,260.03 730.01,260.03
             730.01,260.03 748.00,254.11 748.00,254.11
             754.62,252.49 761.28,251.87 762.34,244.00
             762.53,242.59 762.69,240.81 761.79,239.58
             759.45,236.39 749.21,240.73 746.00,241.72
             746.00,241.72 701.00,255.00 701.00,255.00
             701.00,255.00 701.00,257.00 701.00,257.00 Z
           M 685.00,274.00
           C 683.64,269.89 682.74,269.95 679.00,268.04
             672.35,264.66 670.36,264.32 663.00,266.29
             663.00,266.29 647.00,271.41 647.00,271.41
             647.00,271.41 608.00,283.49 608.00,283.49
             601.63,285.48 587.66,288.98 583.00,293.00
             583.00,293.00 602.00,291.34 602.00,291.34
             602.00,291.34 615.00,296.42 615.00,296.42
             615.00,296.42 630.00,291.67 630.00,291.67
             630.00,291.67 648.00,285.88 648.00,285.88
             648.00,285.88 655.00,284.10 655.00,284.10
             655.00,284.10 685.00,274.00 685.00,274.00 Z
           M 753.89,273.51
           C 750.07,274.28 738.08,277.18 735.54,279.58
             728.42,286.33 731.99,299.44 732.00,308.00
             732.01,315.55 730.17,331.38 742.00,330.76
             744.81,330.62 748.47,329.28 749.98,326.78
             751.03,325.04 751.31,318.65 751.80,316.00
             751.80,316.00 754.21,298.00 754.21,298.00
             754.21,298.00 756.07,288.00 756.07,288.00
             756.53,283.37 760.43,274.43 753.89,273.51 Z
           M 389.00,301.00
           C 389.07,297.99 388.57,296.82 388.20,294.00
             387.57,289.11 387.29,279.80 380.90,278.53
             377.90,277.94 373.85,280.27 371.00,281.27
             367.22,282.59 367.01,282.02 364.00,285.00
             364.00,285.00 389.00,301.00 389.00,301.00 Z
           M 571.00,386.00
           C 590.30,382.53 608.37,375.48 627.00,369.59
             627.00,369.59 641.00,365.69 641.00,365.69
             641.00,365.69 667.00,356.74 667.00,356.74
             667.00,356.74 680.00,352.78 680.00,352.78
             680.00,352.78 700.00,345.77 700.00,345.77
             703.10,344.69 707.23,343.48 709.26,340.78
             711.42,337.90 711.95,330.61 712.00,327.00
             712.10,317.99 712.27,308.91 710.68,300.00
             710.22,297.41 708.57,291.51 706.35,290.01
             704.09,288.47 700.34,289.91 698.00,290.67
             698.00,290.67 677.00,297.42 677.00,297.42
             677.00,297.42 645.00,307.96 645.00,307.96
             645.00,307.96 606.00,320.34 606.00,320.34
             606.00,320.34 587.00,326.59 587.00,326.59
             584.59,327.46 580.27,328.65 578.59,330.51
             576.37,332.97 575.32,344.33 575.00,348.00
             575.00,348.00 573.29,360.00 573.29,360.00
             573.29,360.00 570.00,385.00 570.00,385.00
             570.00,385.00 571.00,386.00 571.00,386.00 Z
           M 363.00,316.00
           C 363.90,310.49 362.32,309.24 358.00,305.90
             353.21,302.20 337.44,292.30 332.00,291.00
             332.59,301.04 341.29,304.01 349.00,308.88
             353.66,311.83 357.57,314.70 363.00,316.00 Z
           M 901.00,297.00
           C 901.00,297.00 875.00,305.92 875.00,305.92
             875.00,305.92 835.00,320.14 835.00,320.14
             835.00,320.14 821.00,324.69 821.00,324.69
             821.00,324.69 804.00,331.61 804.00,331.61
             804.00,331.61 777.00,341.19 777.00,341.19
             774.59,342.18 768.03,343.99 766.63,345.56
             765.17,347.21 765.26,350.74 764.73,353.00
             764.73,353.00 762.29,365.00 762.29,365.00
             762.29,365.00 761.26,375.00 761.26,375.00
             761.26,375.00 757.71,398.00 757.71,398.00
             753.62,424.49 750.13,451.20 748.96,478.00
             748.96,478.00 747.17,493.00 747.17,493.00
             747.17,493.00 745.83,514.00 745.83,514.00
             745.83,514.00 744.09,528.00 744.09,528.00
             744.09,528.00 743.00,546.00 743.00,546.00
             742.94,559.23 741.74,555.31 741.09,563.00
             739.98,576.11 738.70,589.37 734.71,602.00
             731.88,610.98 724.68,620.96 718.58,628.00
             716.53,630.36 711.47,635.05 710.31,637.17
             706.59,644.03 706.37,664.60 705.59,673.00
             705.59,673.00 704.13,680.00 704.13,680.00
             704.13,680.00 702.83,699.00 702.83,699.00
             702.58,701.61 701.10,708.76 701.77,710.86
             703.27,715.61 711.56,714.24 712.94,720.05
             713.43,722.15 711.64,728.32 711.29,731.00
             711.29,731.00 709.12,754.96 709.12,754.96
             709.12,754.96 708.00,774.00 708.00,774.00
             708.01,777.38 707.93,779.63 708.67,783.00
             709.24,785.63 710.05,788.54 712.28,790.26
             719.31,795.73 735.78,786.90 742.00,782.80
             742.00,782.80 749.00,778.29 749.00,778.29
             749.00,778.29 807.00,741.92 807.00,741.92
             807.00,741.92 815.00,737.45 815.00,737.45
             815.00,737.45 827.00,729.18 827.00,729.18
             839.59,721.01 848.37,716.24 856.91,703.00
             868.56,684.93 869.70,667.55 872.15,647.00
             872.15,647.00 878.17,597.00 878.17,597.00
             878.17,597.00 879.83,588.00 879.83,588.00
             879.83,588.00 882.18,564.00 882.18,564.00
             882.18,564.00 883.82,556.00 883.82,556.00
             883.82,556.00 887.17,524.00 887.17,524.00
             887.17,524.00 888.83,513.00 888.83,513.00
             888.83,513.00 893.09,451.00 893.09,451.00
             893.09,451.00 895.09,426.00 895.09,426.00
             895.09,426.00 896.00,416.00 896.00,416.00
             896.00,416.00 899.00,369.00 899.00,369.00
             899.00,369.00 901.00,343.00 901.00,343.00
             901.00,343.00 902.09,323.00 902.09,323.00
             902.79,312.86 904.03,307.35 901.00,297.00 Z
           M 480.00,339.00
           C 480.00,339.00 475.00,340.00 475.00,340.00
             475.00,340.00 480.00,339.00 480.00,339.00 Z
           M 551.98,338.43
           C 543.70,340.46 530.25,343.67 531.79,355.00
             532.19,357.92 534.61,362.24 535.88,365.00
             538.02,369.61 542.64,385.98 549.69,384.18
             552.45,383.47 552.36,375.58 552.73,373.00
             552.73,373.00 556.08,347.00 556.08,347.00
             556.45,342.27 558.33,338.56 551.98,338.43 Z
           M 470.00,341.00
           C 470.00,341.00 460.00,344.00 460.00,344.00
             464.67,343.95 466.41,344.31 470.00,341.00 Z
           M 456.00,345.00
           C 456.00,345.00 453.00,344.00 453.00,344.00
             453.00,344.00 452.00,347.00 452.00,347.00
             452.00,347.00 456.00,345.00 456.00,345.00 Z
           M 746.00,353.00
           C 741.79,353.21 733.70,354.72 731.09,358.30
             728.62,361.68 729.12,367.86 728.58,372.00
             728.58,372.00 726.83,393.00 726.83,393.00
             726.83,393.00 725.09,408.00 725.09,408.00
             725.09,408.00 718.00,486.00 718.00,486.00
             718.00,486.00 718.00,497.00 718.00,497.00
             718.00,497.00 716.17,509.00 716.17,509.00
             716.17,509.00 714.91,531.00 714.91,531.00
             714.91,531.00 712.83,549.00 712.83,549.00
             712.83,549.00 711.83,563.00 711.83,563.00
             711.83,563.00 709.94,574.00 709.94,574.00
             709.94,574.00 709.94,583.00 709.94,583.00
             709.18,587.48 706.95,600.27 707.72,604.00
             707.72,604.00 710.00,610.00 710.00,610.00
             716.06,606.14 718.46,598.65 720.28,592.00
             724.37,577.03 724.63,561.37 726.17,546.00
             726.17,546.00 726.79,539.00 726.79,539.00
             726.79,539.00 726.79,533.00 726.79,533.00
             726.79,533.00 727.90,526.00 727.90,526.00
             727.90,526.00 730.17,497.00 730.17,497.00
             730.17,497.00 732.00,482.00 732.00,482.00
             732.00,482.00 732.00,474.00 732.00,474.00
             732.00,474.00 735.06,447.00 735.06,447.00
             735.06,447.00 735.06,437.00 735.06,437.00
             735.06,437.00 738.72,413.00 738.72,413.00
             738.72,413.00 742.30,384.00 742.30,384.00
             743.79,373.68 745.97,363.50 746.00,353.00 Z
           M 520.00,636.00
           C 520.00,636.00 522.17,609.00 522.17,609.00
             522.17,609.00 523.96,596.00 523.96,596.00
             523.96,596.00 523.96,585.00 523.96,585.00
             523.96,585.00 525.09,571.00 525.09,571.00
             525.09,571.00 527.00,554.00 527.00,554.00
             527.17,539.54 527.30,538.29 529.56,524.00
             529.56,524.00 530.30,518.00 530.30,518.00
             531.43,513.12 534.56,511.68 536.04,505.00
             536.04,505.00 539.89,470.00 539.89,470.00
             540.74,463.51 543.35,452.42 542.90,446.00
             542.54,440.78 535.70,422.88 533.53,417.00
             526.30,397.43 524.83,390.17 514.14,371.00
             511.70,366.62 507.58,358.25 503.00,356.26
             499.22,354.62 490.94,357.69 487.00,358.88
             478.57,361.43 462.44,365.90 454.00,366.00
             449.12,366.05 445.88,366.04 441.00,365.42
             439.17,365.20 436.18,364.72 434.64,366.02
             432.09,368.17 436.49,379.94 437.54,383.00
             437.54,383.00 443.09,402.00 443.09,402.00
             443.09,402.00 449.09,420.00 449.09,420.00
             449.09,420.00 451.46,426.00 451.46,426.00
             451.46,426.00 452.53,432.00 452.53,432.00
             452.53,432.00 464.22,468.00 464.22,468.00
             464.22,468.00 477.21,512.00 477.21,512.00
             477.21,512.00 483.25,529.00 483.25,529.00
             483.25,529.00 489.74,550.00 489.74,550.00
             489.74,550.00 498.41,575.00 498.41,575.00
             498.41,575.00 510.92,612.00 510.92,612.00
             512.58,617.52 516.72,632.16 520.00,636.00 Z
           M 705.85,365.64
           C 705.85,365.64 679.00,374.26 679.00,374.26
             679.00,374.26 629.00,390.52 629.00,390.52
             629.00,390.52 604.00,398.98 604.00,398.98
             604.00,398.98 577.00,406.58 577.00,406.58
             573.72,407.41 569.10,408.04 567.31,411.15
             565.93,413.56 565.99,418.12 565.57,421.00
             564.95,425.29 563.26,433.97 563.63,438.00
             563.97,441.68 567.52,450.11 568.95,454.00
             568.95,454.00 579.69,485.00 579.69,485.00
             579.69,485.00 584.36,497.00 584.36,497.00
             584.36,497.00 594.42,526.00 594.42,526.00
             594.42,526.00 602.22,549.00 602.22,549.00
             602.22,549.00 606.60,560.00 606.60,560.00
             606.60,560.00 629.59,627.00 629.59,627.00
             629.59,627.00 637.31,651.00 637.31,651.00
             638.31,653.77 639.31,658.24 643.05,658.12
             645.39,658.04 648.86,655.36 651.00,654.19
             657.37,650.71 671.08,644.84 673.74,637.96
             676.33,631.24 673.83,623.05 678.42,615.00
             678.42,615.00 687.53,601.00 687.53,601.00
             689.40,596.21 688.71,591.84 689.17,587.00
             689.17,587.00 690.83,575.00 690.83,575.00
             690.83,575.00 692.28,557.00 692.28,557.00
             692.28,557.00 699.00,487.00 699.00,487.00
             699.00,487.00 699.00,478.00 699.00,478.00
             699.00,478.00 700.83,465.00 700.83,465.00
             700.83,465.00 702.58,440.00 702.58,440.00
             702.58,440.00 707.58,384.00 707.58,384.00
             707.58,384.00 708.31,367.33 708.31,367.33
             707.59,365.57 706.23,365.78 705.85,365.64 Z
           M 158.79,372.17
           C 152.18,373.33 152.56,380.01 156.95,380.55
             160.50,380.99 164.02,374.91 158.79,372.17 Z
           M 192.00,408.00
           C 199.65,407.36 219.59,404.11 220.85,395.00
             221.91,387.33 216.74,386.81 211.00,385.50
             207.97,384.81 206.21,383.99 203.00,384.57
             203.00,384.57 193.00,388.00 193.00,388.00
             194.45,397.42 197.14,398.73 192.00,408.00 Z
           M 188.87,396.86
           C 181.46,398.82 182.53,405.75 187.06,405.72
             191.43,405.69 194.38,398.62 188.87,396.86 Z
           M 246.00,398.00
           C 246.00,398.00 242.00,399.00 242.00,399.00
             242.00,399.00 246.00,398.00 246.00,398.00 Z
           M 179.00,398.00
           C 179.00,398.00 177.00,398.00 177.00,398.00
             175.04,403.52 176.31,403.42 177.00,409.00
             177.00,409.00 181.00,409.00 181.00,409.00
             181.00,409.00 179.00,398.00 179.00,398.00 Z
           M 558.00,490.00
           C 554.22,495.31 553.16,505.93 555.61,512.00
             558.25,518.53 560.85,517.64 561.00,526.00
             561.00,526.00 560.00,547.00 560.00,547.00
             560.00,547.00 558.17,562.00 558.17,562.00
             558.17,562.00 556.83,588.00 556.83,588.00
             556.83,588.00 554.80,612.00 554.80,612.00
             554.54,614.46 553.88,619.82 554.80,621.69
             556.98,624.83 563.18,624.22 563.77,631.00
             563.77,631.00 561.06,652.00 561.06,652.00
             561.06,652.00 561.06,660.00 561.06,660.00
             561.06,660.00 559.04,679.00 559.04,679.00
             558.93,681.76 559.08,684.30 559.67,687.00
             564.18,707.61 587.30,691.94 598.00,686.08
             598.00,686.08 606.00,681.37 606.00,681.37
             609.63,679.14 619.97,674.41 621.39,670.68
             622.53,667.67 619.46,660.02 618.30,657.00
             618.30,657.00 613.92,643.00 613.92,643.00
             613.92,643.00 608.48,628.00 608.48,628.00
             608.48,628.00 593.17,584.42 593.17,584.42
             593.17,584.42 587.92,568.00 587.92,568.00
             587.92,568.00 577.54,540.00 577.54,540.00
             577.54,540.00 568.40,515.00 568.40,515.00
             565.76,507.30 562.81,496.37 558.00,490.00 Z
           M 671.00,664.00
           C 664.63,665.21 659.36,669.48 654.00,672.95
             651.57,674.53 648.78,676.11 647.83,679.04
             646.66,682.63 649.77,689.23 650.78,693.00
             650.78,693.00 659.18,719.00 659.18,719.00
             660.91,724.24 661.21,728.61 665.00,733.00
             665.00,733.00 668.09,702.00 668.09,702.00
             668.09,702.00 669.83,689.00 669.83,689.00
             669.83,689.00 671.00,664.00 671.00,664.00 Z" />
</svg>