<?xml version="1.0" encoding="UTF-8" standalone="no"?>
<!DOCTYPE svg PUBLIC "-//W3C//DTD SVG 20010904//EN"
              "http://www.w3.org/TR/2001/REC-SVG-20010904/DTD/svg10.dtd">

<svg xmlns="http://www.w3.org/2000/svg"
     width="3.33333in" height="3.33333in"
     viewBox="0 0 1000 1000">
  <path id="Sélection #50"
        fill="none" stroke="black" stroke-width="1"
        d="M 544.00,380.00
           C 543.50,383.78 543.08,393.04 541.15,395.66
             538.66,399.04 527.28,403.18 523.00,405.00
             523.00,405.00 491.00,418.28 491.00,418.28
             485.71,420.52 475.41,425.31 470.00,425.80
             461.42,426.58 458.05,418.82 453.06,420.45
             448.44,421.96 448.99,428.30 447.77,431.98
             446.68,435.32 445.06,436.47 442.00,437.95
             442.00,437.95 400.00,454.81 400.00,454.81
             400.00,454.81 375.00,463.67 375.00,463.67
             370.58,464.38 367.52,463.26 364.00,460.61
             362.11,459.19 358.87,455.50 356.30,456.34
             354.30,456.98 353.60,460.21 353.30,462.00
             352.49,466.89 353.67,470.37 348.87,473.65
             348.87,473.65 321.00,485.86 321.00,485.86
             321.00,485.86 282.00,501.69 282.00,501.69
             274.99,504.26 274.47,505.60 266.00,507.33
             249.72,510.68 247.08,504.81 234.00,499.35
             234.00,499.35 223.00,496.12 223.00,496.12
             214.52,493.52 202.86,487.81 198.22,480.00
             195.50,475.41 195.47,470.98 194.54,466.00
             193.73,461.67 192.82,459.69 193.09,455.00
             193.09,455.00 194.71,445.00 194.71,445.00
             196.13,434.10 196.62,423.00 201.89,413.00
             209.65,398.26 221.27,389.77 234.00,379.79
             234.00,379.79 286.00,341.79 286.00,341.79
             286.00,341.79 315.00,325.42 315.00,325.42
             318.78,323.29 325.96,319.82 328.70,316.79
             336.05,308.67 328.03,304.98 323.61,299.00
             319.95,294.04 316.71,286.26 317.18,280.00
             319.52,249.03 351.13,225.04 381.00,225.00
             381.00,225.00 385.00,225.00 385.00,225.00
             395.22,225.13 405.42,230.67 411.36,239.00
             414.59,243.52 415.04,247.98 418.22,250.40
             420.80,252.36 424.83,251.94 428.00,252.44
             432.88,253.21 436.70,254.40 441.00,256.88
             450.01,262.06 450.40,266.99 455.04,267.17
             457.71,267.27 467.68,263.08 471.00,262.03
             471.00,262.03 499.00,254.76 499.00,254.76
             499.00,254.76 505.91,252.67 505.91,252.67
             505.91,252.67 535.00,248.84 535.00,248.84
             535.00,248.84 569.00,245.91 569.00,245.91
             569.00,245.91 581.00,245.00 581.00,245.00
             581.00,245.00 605.00,245.00 605.00,245.00
             614.46,245.01 625.02,248.33 634.00,251.33
             639.02,253.01 644.79,254.98 648.82,258.53
             654.03,263.12 656.68,271.44 658.37,278.00
             660.96,288.06 666.21,310.29 665.99,320.00
             665.66,334.17 658.96,346.93 647.00,354.90
             641.59,358.51 633.18,361.53 627.00,364.00
             627.00,364.00 599.00,375.01 599.00,375.01
             591.71,378.02 568.68,387.61 562.00,387.89
             553.36,388.26 553.12,381.94 544.00,380.00 Z
           M 345.00,242.00
           C 340.78,243.46 340.01,243.99 338.00,248.00
             342.05,246.67 342.62,245.44 345.00,242.00 Z
           M 380.00,250.00
           C 380.00,250.00 376.00,253.00 376.00,253.00
             376.00,253.00 380.00,250.00 380.00,250.00 Z" />
</svg>