<?xml version="1.0" encoding="UTF-8" standalone="no"?>
<!DOCTYPE svg PUBLIC "-//W3C//DTD SVG 20010904//EN"
              "http://www.w3.org/TR/2001/REC-SVG-20010904/DTD/svg10.dtd">

<svg xmlns="http://www.w3.org/2000/svg"
     width="3.33333in" height="3.33333in"
     viewBox="0 0 1000 1000">
  <path id="Sélection #50"
        fill="none" stroke="black" stroke-width="1"
        d="M 610.00,422.00
           C 610.32,418.12 611.38,408.40 613.73,405.53
             616.29,402.41 625.09,398.84 629.00,397.15
             629.00,397.15 649.00,388.61 649.00,388.61
             649.00,388.61 663.00,383.60 663.00,383.60
             670.91,380.47 691.48,372.34 699.00,372.04
             701.68,371.93 704.40,372.05 707.00,372.79
             712.18,374.26 734.83,387.47 741.00,391.00
             748.51,395.29 761.86,402.23 764.49,411.00
             765.09,413.00 765.00,415.88 765.00,418.00
             765.00,418.00 765.00,449.00 765.00,449.00
             764.96,470.88 750.59,489.04 735.00,502.95
             735.00,502.95 689.00,540.12 689.00,540.12
             679.56,547.08 660.19,560.89 653.13,569.00
             648.34,574.50 649.07,579.37 646.97,586.00
             646.97,586.00 639.00,606.15 639.00,606.15
             639.00,606.15 651.00,606.15 651.00,606.15
             663.73,608.13 673.06,616.35 670.67,630.00
             669.64,635.90 664.13,644.37 661.24,650.00
             654.05,664.04 636.21,678.56 621.00,683.23
             613.71,685.46 610.08,684.48 605.00,685.76
             605.00,685.76 598.00,687.68 598.00,687.68
             587.55,689.42 576.17,686.99 572.13,676.00
             569.41,668.58 571.97,661.32 573.00,654.00
             573.00,654.00 550.00,655.00 550.00,655.00
             550.00,655.00 537.00,653.49 537.00,653.49
             537.00,653.49 531.00,654.69 531.00,654.69
             526.20,655.58 521.88,655.99 517.00,656.00
             517.00,656.00 470.00,657.00 470.00,657.00
             470.00,657.00 455.00,658.00 455.00,658.00
             434.33,658.24 432.05,660.44 413.00,663.75
             395.13,666.85 377.15,669.08 359.00,669.00
             347.05,668.94 334.90,663.15 324.00,658.58
             317.20,655.72 312.78,654.67 308.67,648.00
             303.02,638.81 301.12,616.44 299.25,605.00
             297.19,592.43 293.24,576.19 297.55,564.00
             302.83,549.02 314.03,542.42 327.00,535.14
             327.00,535.14 375.00,510.69 375.00,510.69
             375.00,510.69 395.00,501.58 395.00,501.58
             397.45,500.54 401.41,498.56 404.00,498.55
             409.51,498.52 415.25,505.96 422.00,509.00
             422.00,504.22 421.80,494.23 424.17,490.18
             426.17,486.76 434.34,482.80 438.00,480.72
             438.00,480.72 474.00,463.14 474.00,463.14
             479.66,460.62 494.54,452.56 500.00,453.50
             504.65,454.31 512.05,461.05 516.00,464.00
             516.00,464.00 520.70,444.53 520.70,444.53
             520.70,444.53 536.00,435.74 536.00,435.74
             536.00,435.74 576.00,418.83 576.00,418.83
             576.00,418.83 594.00,413.38 594.00,413.38
             594.00,413.38 610.00,422.00 610.00,422.00 Z
           M 591.00,518.00
           C 591.00,518.00 590.00,518.00 590.00,518.00
             590.00,518.00 591.00,519.00 591.00,519.00
             591.00,519.00 591.00,518.00 591.00,518.00 Z
           M 590.00,519.00
           C 590.00,519.00 582.00,524.00 582.00,524.00
             582.00,524.00 590.00,519.00 590.00,519.00 Z
           M 607.00,628.00
           C 601.45,630.53 599.04,632.04 597.00,638.00
             602.26,635.42 605.26,633.86 607.00,628.00 Z
           M 641.00,635.00
           C 636.11,635.17 635.26,635.19 632.00,639.00
             637.12,641.12 639.95,641.00 641.00,635.00 Z" />
</svg>