<?xml version="1.0" encoding="UTF-8" standalone="no"?>
<!DOCTYPE svg PUBLIC "-//W3C//DTD SVG 20010904//EN"
              "http://www.w3.org/TR/2001/REC-SVG-20010904/DTD/svg10.dtd">

<svg xmlns="http://www.w3.org/2000/svg"
     width="3.33333in" height="3.33333in"
     viewBox="0 0 1000 1000">
  <path id="Sélection #50"
        fill="none" stroke="black" stroke-width="1"
        d="M 344.00,0.00
           C 344.00,0.00 406.03,0.00 406.03,0.00
             406.03,0.00 406.03,16.00 406.03,16.00
             406.03,16.00 402.56,24.00 402.56,24.00
             400.90,28.48 397.39,43.61 397.64,48.00
             398.23,58.22 404.38,60.08 405.33,65.01
             405.98,68.41 403.95,70.84 403.43,74.00
             402.94,76.89 404.42,85.08 405.33,88.00
             405.94,89.98 409.32,97.20 410.54,98.74
             412.16,100.79 414.15,101.53 415.26,104.13
             415.26,104.13 416.88,112.00 416.88,112.00
             418.85,117.45 422.03,121.91 424.58,127.00
             424.58,127.00 431.52,141.89 431.52,141.89
             433.75,145.55 435.55,145.40 437.00,147.49
             438.37,149.49 437.99,151.99 439.84,154.79
             441.16,156.79 445.01,159.64 447.37,163.43
             449.85,167.43 448.95,171.91 451.30,175.87
             451.30,175.87 458.22,184.02 458.22,184.02
             462.26,190.06 459.46,190.79 464.25,197.98
             467.14,202.34 468.64,202.33 470.44,204.45
             472.47,206.84 472.27,208.89 474.49,211.83
             474.49,211.83 481.51,219.43 481.51,219.43
             483.59,222.45 483.17,224.75 486.55,230.00
             486.55,230.00 498.34,245.90 498.34,245.90
             498.34,245.90 504.51,251.37 504.51,251.37
             504.51,251.37 509.84,259.58 509.84,259.58
             509.84,259.58 522.10,273.45 522.10,273.45
             522.10,273.45 525.61,279.72 525.61,279.72
             525.61,279.72 534.42,290.17 534.42,290.17
             537.53,293.94 543.96,302.76 548.01,304.83
             552.36,307.05 555.87,304.98 560.00,305.46
             560.00,305.46 566.00,306.59 566.00,306.59
             568.57,306.60 570.21,305.44 573.00,305.89
             573.00,305.89 580.00,308.16 580.00,308.16
             580.00,308.16 594.83,311.53 594.83,311.53
             594.83,311.53 600.09,314.22 600.09,314.22
             600.09,314.22 606.00,316.37 606.00,316.37
             606.00,316.37 619.00,322.82 619.00,322.82
             626.01,326.31 630.57,328.28 637.01,332.83
             639.21,334.38 644.58,338.64 647.00,338.85
             652.93,339.35 653.24,331.38 656.31,328.72
             657.48,327.71 659.59,326.91 661.00,326.10
             668.34,321.89 670.18,320.56 679.00,319.30
             688.59,317.92 698.50,318.62 707.00,323.72
             709.08,324.96 713.51,328.34 714.96,330.26
             716.76,332.63 717.26,335.14 720.19,336.83
             723.05,338.48 731.45,338.06 735.00,338.00
             743.19,337.84 741.68,335.47 746.17,333.01
             746.17,333.01 758.00,329.69 758.00,329.69
             767.21,328.51 775.05,331.89 782.16,337.26
             784.67,339.15 786.89,340.15 788.35,343.10
             790.49,347.42 791.06,358.98 791.00,364.00
             790.87,374.63 786.28,387.10 776.00,391.86
             776.00,391.86 764.00,394.90 764.00,394.90
             757.54,395.68 752.78,393.49 746.00,394.90
             744.62,392.64 743.49,390.38 740.95,388.92
             737.76,387.32 734.33,388.56 731.00,388.92
             725.81,389.21 722.76,387.34 719.68,393.04
             718.82,394.64 718.07,397.18 718.03,399.00
             717.88,405.96 724.38,406.10 728.28,409.94
             731.58,413.18 731.48,417.13 733.62,421.00
             737.94,428.83 740.70,428.69 742.73,431.49
             742.73,431.49 745.40,436.91 745.40,436.91
             745.40,436.91 753.80,451.00 753.80,451.00
             753.80,451.00 757.41,459.00 757.41,459.00
             759.80,463.46 762.66,465.53 764.20,470.99
             765.34,475.04 766.66,492.50 766.66,497.00
             766.66,497.00 766.00,506.00 766.00,506.00
             766.00,506.00 766.00,513.00 766.00,513.00
             765.87,520.13 764.45,519.23 761.98,525.00
             756.98,536.68 752.47,543.34 741.00,549.73
             732.94,554.22 724.52,552.24 720.93,557.27
             719.35,559.49 719.15,563.35 718.49,566.00
             718.49,566.00 716.19,574.00 716.19,574.00
             716.19,574.00 714.50,586.72 714.50,586.72
             714.50,586.72 711.93,592.04 711.93,592.04
             711.93,592.04 709.18,600.00 709.18,600.00
             709.18,600.00 707.59,608.00 707.59,608.00
             707.59,608.00 702.65,622.00 702.65,622.00
             702.65,622.00 688.52,653.00 688.52,653.00
             685.52,661.86 686.05,665.37 684.56,674.00
             683.91,677.82 682.05,682.50 682.13,686.00
             682.13,686.00 683.68,694.00 683.68,694.00
             683.68,694.00 684.33,703.00 684.33,703.00
             684.63,708.96 682.81,712.71 682.09,718.00
             682.09,718.00 682.09,726.00 682.09,726.00
             681.90,733.52 679.55,735.10 680.32,739.00
             681.52,745.05 687.49,747.06 690.74,754.00
             690.74,754.00 695.82,780.00 695.82,780.00
             695.82,780.00 695.82,786.00 695.82,786.00
             695.25,799.57 697.05,810.19 685.05,820.14
             685.05,820.14 679.83,824.02 679.83,824.02
             677.42,825.22 673.86,825.10 671.00,825.86
             669.35,826.30 661.55,830.05 660.09,830.96
             654.65,834.37 653.42,839.75 641.00,843.72
             631.89,846.33 628.95,843.41 621.00,843.72
             613.80,844.35 607.02,850.80 602.44,856.04
             598.18,860.90 598.73,861.81 596.09,865.72
             592.76,870.63 589.39,872.47 586.33,879.99
             584.58,884.25 584.94,886.57 584.06,889.04
             584.06,889.04 580.93,895.00 580.93,895.00
             580.93,895.00 578.57,901.91 578.57,901.91
             576.61,905.84 569.42,912.22 565.00,912.85
             557.32,913.95 552.18,910.94 546.00,906.94
             544.05,905.68 541.67,904.57 540.39,902.59
             540.39,902.59 538.33,898.00 538.33,898.00
             535.53,892.36 530.64,883.73 525.00,881.00
             525.84,872.04 523.25,873.21 520.28,866.00
             517.42,859.06 515.14,848.41 508.70,843.74
             505.16,841.17 496.45,842.01 492.00,842.00
             492.00,842.00 474.00,841.18 474.00,841.18
             474.00,841.18 463.00,837.29 463.00,837.29
             457.69,835.93 455.55,837.04 453.21,836.18
             450.89,835.32 449.90,833.16 447.79,832.01
             444.89,830.42 442.60,831.62 439.42,830.06
             439.42,830.06 433.99,826.80 433.99,826.80
             433.99,826.80 427.26,824.51 427.26,824.51
             423.23,822.50 425.20,821.35 419.00,820.00
             419.00,820.00 416.69,803.00 416.69,803.00
             416.69,803.00 418.00,780.00 418.00,780.00
             418.00,780.00 422.00,780.00 422.00,780.00
             422.00,780.00 427.00,770.00 427.00,770.00
             428.57,770.27 430.42,770.67 432.00,770.62
             432.00,770.62 446.95,768.26 446.95,768.26
             450.89,766.68 450.42,764.01 455.05,763.23
             465.18,761.21 466.28,763.56 471.00,763.23
             471.00,763.23 480.00,761.12 480.00,761.12
             480.00,761.12 490.00,759.17 490.00,759.17
             490.00,759.17 497.00,758.48 497.00,758.48
             497.00,758.48 511.00,753.68 511.00,753.68
             511.00,753.68 524.99,751.78 524.99,751.78
             528.97,750.55 529.11,748.83 533.09,748.12
             533.09,748.12 545.00,746.84 545.00,746.84
             545.00,746.84 565.00,744.28 565.00,744.28
             569.64,743.73 574.86,744.60 578.69,741.23
             581.49,738.77 581.70,733.51 582.00,730.00
             582.00,730.00 582.62,719.00 582.62,719.00
             583.39,713.60 584.96,715.81 585.00,704.00
             585.00,704.00 587.00,704.00 587.00,704.00
             587.00,704.00 585.00,734.00 585.00,734.00
             585.00,734.00 583.97,751.00 583.97,751.00
             583.97,751.00 583.97,760.00 583.97,760.00
             583.73,764.85 582.63,762.87 583.97,770.00
             583.89,771.51 583.92,772.46 584.76,773.83
             586.96,777.39 598.27,785.32 602.27,781.40
             603.95,779.75 604.59,775.30 604.83,773.00
             604.83,773.00 606.14,761.00 606.14,761.00
             606.14,761.00 606.14,754.00 606.14,754.00
             606.14,754.00 607.83,743.00 607.83,743.00
             607.83,743.00 609.00,720.00 609.00,720.00
             609.05,711.87 610.28,713.35 610.87,708.00
             610.87,708.00 611.54,695.00 611.54,695.00
             611.54,695.00 611.54,686.00 611.54,686.00
             611.54,686.00 614.00,676.00 614.00,676.00
             603.82,676.00 599.73,675.76 590.00,679.00
             590.26,667.38 595.93,661.52 601.46,652.00
             601.46,652.00 603.54,647.21 603.54,647.21
             605.95,642.49 608.74,644.24 608.81,636.00
             608.81,636.00 608.81,621.00 608.81,621.00
             608.81,621.00 606.46,603.00 606.46,603.00
             606.46,603.00 603.74,596.00 603.74,596.00
             603.74,596.00 602.42,586.00 602.42,586.00
             598.74,572.45 594.55,564.90 587.45,553.00
             587.45,553.00 584.28,547.04 584.28,547.04
             581.49,543.07 578.42,542.55 576.52,540.93
             576.52,540.93 571.52,534.28 571.52,534.28
             571.52,534.28 564.49,527.57 564.49,527.57
             564.49,527.57 556.04,516.91 556.04,516.91
             556.04,516.91 552.45,511.22 552.45,511.22
             552.45,511.22 547.16,506.53 547.16,506.53
             545.66,504.42 546.15,502.36 543.57,499.30
             543.57,499.30 532.49,488.58 532.49,488.58
             529.80,485.40 528.72,481.87 524.83,478.22
             521.77,475.35 518.51,474.44 515.32,471.98
             512.21,469.57 509.89,466.07 505.83,463.63
             505.83,463.63 499.26,460.84 499.26,460.84
             499.26,460.84 493.87,456.00 493.87,456.00
             489.35,452.95 479.48,450.78 474.00,451.00
             470.20,444.74 466.63,446.32 460.00,445.37
             448.77,443.43 453.74,444.93 445.00,445.37
             440.18,445.80 438.11,444.73 433.00,446.48
             429.81,447.58 428.66,448.81 426.00,450.07
             422.51,451.71 419.25,451.45 416.23,454.30
             415.10,455.37 410.38,464.36 409.71,466.09
             409.71,466.09 408.09,472.00 408.09,472.00
             407.11,474.42 404.55,477.66 405.18,480.37
             406.01,483.97 410.90,484.23 410.73,491.00
             410.73,491.00 404.75,515.00 404.75,515.00
             403.62,519.60 403.82,531.68 400.69,534.42
             398.20,536.59 393.17,536.85 390.00,537.00
             390.00,537.00 392.42,544.00 392.42,544.00
             395.04,555.28 382.31,550.65 377.73,557.11
             374.75,561.32 373.93,573.41 368.87,575.50
             367.45,575.91 363.62,575.75 362.00,575.50
             358.99,575.44 358.69,575.19 356.00,574.00
             356.00,574.00 352.71,591.00 352.71,591.00
             352.71,591.00 349.01,603.00 349.01,603.00
             349.01,603.00 346.46,614.00 346.46,614.00
             346.46,614.00 333.00,652.00 333.00,652.00
             333.00,652.00 352.00,650.91 352.00,650.91
             352.00,650.91 395.00,648.43 395.00,648.43
             401.71,648.43 412.05,646.04 418.00,647.47
             422.72,648.60 431.71,653.65 435.23,656.97
             438.18,659.75 440.83,664.29 444.02,666.00
             447.07,667.64 451.59,667.08 455.00,667.00
             455.00,667.00 455.00,669.00 455.00,669.00
             455.00,669.00 450.00,671.00 450.00,671.00
             455.74,672.86 462.46,673.80 465.98,679.45
             467.30,681.56 466.99,686.31 467.28,689.00
             468.16,697.30 466.63,695.29 466.09,702.00
             465.90,704.37 466.23,707.69 465.41,709.83
             464.59,711.95 458.78,720.35 456.89,721.61
             446.35,728.69 439.37,727.10 428.00,729.24
             428.00,729.24 403.00,734.48 403.00,734.48
             398.73,734.95 396.27,732.70 388.00,734.48
             388.00,734.48 370.00,740.00 370.00,740.00
             370.00,740.00 370.00,744.00 370.00,744.00
             357.67,744.01 356.01,747.66 346.72,754.34
             346.72,754.34 336.00,760.69 336.00,760.69
             336.00,760.69 292.00,784.34 292.00,784.34
             292.00,784.34 284.00,787.36 284.00,787.36
             284.00,787.36 273.04,792.52 273.04,792.52
             273.04,792.52 267.72,795.57 267.72,795.57
             267.72,795.57 260.00,797.96 260.00,797.96
             247.55,803.33 255.19,802.66 241.00,801.86
             241.00,801.86 234.04,801.86 234.04,801.86
             228.10,800.09 229.54,794.05 231.84,790.00
             238.49,778.32 238.16,782.54 243.06,777.45
             244.82,775.62 245.43,773.99 246.79,772.08
             248.83,769.24 251.39,767.70 251.92,763.99
             252.54,759.59 250.12,757.87 247.58,754.85
             245.91,752.85 245.05,751.45 242.90,749.80
             234.46,743.32 225.39,747.16 219.00,746.68
             214.21,746.32 201.74,745.78 198.00,744.00
             190.50,740.42 182.36,729.33 181.72,721.00
             181.22,714.56 182.64,708.25 183.68,702.00
             183.68,702.00 184.71,694.09 184.71,694.09
             186.01,689.78 190.69,686.47 193.96,683.59
             193.96,683.59 203.12,675.24 203.12,675.24
             203.12,675.24 217.00,669.71 217.00,669.71
             222.13,667.66 225.17,668.48 227.49,666.40
             230.26,663.93 230.85,658.42 231.74,655.00
             231.74,655.00 234.61,647.00 234.61,647.00
             234.61,647.00 236.00,634.00 236.00,634.00
             237.99,633.03 238.97,632.75 240.42,630.86
             241.90,628.93 245.60,618.64 245.93,616.04
             245.93,616.04 246.62,607.15 246.62,607.15
             247.83,604.10 252.41,601.06 254.73,598.58
             257.50,595.60 257.37,594.22 259.21,591.17
             261.08,588.05 268.19,581.02 266.13,577.30
             265.08,575.41 261.88,574.62 260.00,573.81
             246.56,568.02 254.11,571.68 243.00,569.67
             237.39,568.66 235.60,565.79 232.00,564.58
             226.86,562.86 222.08,565.08 218.04,568.16
             216.07,569.67 213.81,571.50 213.23,574.04
             212.64,576.62 214.24,578.95 213.78,583.00
             213.78,583.00 211.25,595.01 211.25,595.01
             210.07,598.49 208.11,599.52 207.21,604.00
             205.20,614.02 208.66,627.15 201.37,634.77
             200.00,636.20 198.88,637.02 196.96,637.57
             196.96,637.57 176.00,639.56 176.00,639.56
             173.20,639.87 169.07,640.01 167.91,636.75
             167.04,634.32 168.90,628.67 168.62,624.00
             168.62,624.00 167.91,608.00 167.91,608.00
             167.91,608.00 167.18,601.00 167.18,601.00
             167.18,601.00 167.72,593.00 167.72,593.00
             167.72,593.00 167.72,582.00 167.72,582.00
             167.72,582.00 167.00,561.00 167.00,561.00
             167.00,561.00 167.00,501.00 167.00,501.00
             167.00,501.00 167.65,491.00 167.65,491.00
             167.94,487.42 166.81,484.51 167.65,482.21
             167.65,482.21 172.84,474.96 172.84,474.96
             172.84,474.96 179.58,463.97 179.58,463.97
             179.58,463.97 185.00,461.17 185.00,461.17
             197.33,454.18 208.80,451.02 223.00,451.00
             234.07,450.98 236.94,448.78 247.00,447.60
             252.34,446.97 257.73,447.16 262.99,445.58
             264.87,445.02 275.27,438.13 276.95,436.68
             276.95,436.68 281.68,431.70 281.68,431.70
             281.68,431.70 294.17,423.44 294.17,423.44
             294.17,423.44 327.00,402.47 327.00,402.47
             330.85,399.77 337.65,396.53 340.42,392.82
             343.76,388.33 342.46,381.41 343.39,377.00
             343.39,377.00 347.25,364.00 347.25,364.00
             347.25,364.00 349.82,335.00 349.82,335.00
             349.07,323.60 351.70,330.46 353.42,319.00
             353.42,319.00 354.18,310.00 354.18,310.00
             354.18,310.00 355.82,302.00 355.82,302.00
             355.82,302.00 357.63,280.00 357.63,280.00
             357.63,280.00 354.42,244.00 354.42,244.00
             354.59,239.85 353.78,234.04 352.74,230.00
             351.71,225.95 349.59,224.07 348.71,219.00
             348.17,215.92 349.16,210.73 347.39,201.00
             345.69,191.68 344.27,193.01 343.29,188.91
             342.67,186.32 343.24,182.77 340.57,180.76
             338.77,179.40 332.63,179.38 330.09,178.91
             326.53,178.26 326.04,177.12 322.96,175.79
             317.66,173.49 313.03,173.57 309.73,167.71
             307.44,163.65 310.12,155.18 311.51,151.00
             311.51,151.00 314.75,139.00 314.75,139.00
             314.75,139.00 317.88,131.00 317.88,131.00
             317.88,131.00 323.00,113.00 323.00,113.00
             310.94,110.52 312.02,106.97 313.68,97.00
             314.60,91.48 313.92,90.01 316.31,84.00
             318.57,78.33 319.94,79.25 321.80,72.00
             322.64,68.70 325.35,63.03 324.36,60.04
             322.83,55.42 317.44,55.37 315.88,53.28
             314.88,51.93 316.77,41.86 317.51,40.00
             321.43,30.12 330.65,36.35 335.40,31.42
             337.58,29.15 336.56,25.78 337.63,22.00
             340.39,12.26 341.96,15.40 344.00,0.00 Z
           M 397.00,168.00
           C 395.74,160.07 387.42,153.27 384.30,146.91
             382.76,143.78 383.25,140.90 382.11,138.04
             380.93,135.07 379.21,134.09 377.99,131.83
             377.99,131.83 375.71,125.17 375.71,125.17
             375.71,125.17 372.41,119.91 372.41,119.91
             370.85,116.49 371.45,113.49 369.88,110.28
             369.88,110.28 361.01,96.83 361.01,96.83
             359.54,94.14 359.98,90.50 357.77,87.22
             355.84,84.35 353.77,84.40 351.04,82.88
             347.00,80.64 336.35,71.27 332.02,77.43
             330.76,79.23 331.20,82.17 330.36,85.00
             328.88,89.94 323.48,97.35 325.61,102.79
             326.51,105.09 333.76,110.52 335.78,117.00
             337.06,121.11 336.79,125.76 337.44,129.99
             337.44,129.99 338.69,138.09 338.69,138.09
             338.69,138.09 341.48,147.00 341.48,147.00
             341.48,147.00 342.62,158.00 342.62,158.00
             344.31,167.03 347.47,168.51 348.57,173.00
             349.34,176.14 348.27,180.65 348.00,184.00
             348.00,184.00 354.00,185.00 354.00,185.00
             354.00,185.00 354.00,175.00 354.00,175.00
             359.94,171.98 358.09,170.33 361.64,166.27
             363.34,164.33 372.68,159.39 375.28,158.85
             377.22,158.45 380.11,158.76 381.99,159.35
             387.77,161.18 388.42,165.92 397.00,168.00 Z
           M 432.00,159.00
           C 431.75,151.31 429.91,153.85 428.86,149.79
             428.39,147.98 429.08,146.20 428.15,143.00
             428.15,143.00 416.97,120.00 416.97,120.00
             416.97,120.00 406.92,105.72 406.92,105.72
             405.52,102.69 406.37,100.11 405.50,97.00
             404.41,93.08 402.51,91.98 400.74,89.11
             399.60,87.26 399.45,85.07 397.66,84.05
             393.94,81.94 388.54,86.90 385.00,88.02
             381.40,89.15 380.83,87.47 375.00,89.00
             375.00,89.00 383.37,108.83 383.37,108.83
             383.37,108.83 386.60,114.09 386.60,114.09
             386.60,114.09 388.79,119.91 388.79,119.91
             388.79,119.91 391.89,125.17 391.89,125.17
             391.89,125.17 394.14,131.00 394.14,131.00
             394.14,131.00 397.88,137.00 397.88,137.00
             397.88,137.00 400.67,143.00 400.67,143.00
             400.67,143.00 411.08,159.91 411.08,159.91
             411.08,159.91 414.85,165.17 414.85,165.17
             414.85,165.17 416.00,169.00 416.00,169.00
             421.61,167.04 418.80,164.91 421.74,161.30
             424.36,158.08 428.36,158.69 432.00,159.00 Z
           M 433.00,170.00
           C 433.00,170.00 428.00,169.00 428.00,169.00
             428.00,169.00 433.00,170.00 433.00,170.00 Z
           M 402.00,178.00
           C 400.93,174.93 401.07,175.07 398.00,174.00
             398.00,174.00 402.00,178.00 402.00,178.00 Z
           M 439.00,185.03
           C 441.79,186.10 445.77,187.45 448.38,185.03
             450.47,183.16 449.35,179.23 444.00,180.82
             444.00,180.82 439.00,183.00 439.00,183.00
             439.00,183.00 439.00,185.03 439.00,185.03 Z
           M 354.00,204.00
           C 355.87,197.42 356.57,192.04 349.00,190.00
             349.00,190.00 354.00,204.00 354.00,204.00 Z
           M 461.00,204.00
           C 461.00,204.00 454.00,204.00 454.00,204.00
             454.00,204.00 454.00,206.00 454.00,206.00
             454.00,206.00 460.00,208.00 460.00,208.00
             460.00,208.00 461.00,204.00 461.00,204.00 Z
           M 423.00,210.00
           C 423.00,210.00 421.00,210.00 421.00,210.00
             421.00,210.00 423.00,214.00 423.00,214.00
             423.00,214.00 423.00,210.00 423.00,210.00 Z
           M 425.00,214.00
           C 424.49,216.64 424.82,216.57 427.00,218.00
             427.00,218.00 425.00,214.00 425.00,214.00 Z
           M 473.00,223.00
           C 472.59,218.88 473.24,217.50 469.00,216.00
             469.00,216.00 462.00,223.00 462.00,223.00
             467.00,225.06 468.03,225.26 473.00,223.00 Z
           M 433.00,226.00
           C 432.59,220.97 432.12,219.86 427.00,219.00
             427.41,224.03 427.88,225.14 433.00,226.00 Z
           M 382.00,223.00
           C 382.00,223.00 378.00,223.00 378.00,223.00
             378.01,230.48 377.78,235.82 384.00,241.00
             384.00,241.00 387.27,234.09 387.27,234.09
             387.27,234.09 382.00,223.00 382.00,223.00 Z
           M 435.00,228.00
           C 435.00,228.00 433.00,229.00 433.00,229.00
             433.00,229.00 436.00,232.00 436.00,232.00
             436.00,232.00 435.00,228.00 435.00,228.00 Z
           M 405.00,229.00
           C 405.00,229.00 404.00,229.00 404.00,229.00
             404.00,229.00 405.00,230.00 405.00,230.00
             405.00,230.00 405.00,229.00 405.00,229.00 Z
           M 440.00,234.00
           C 440.00,234.00 438.00,234.00 438.00,234.00
             437.41,239.76 439.79,243.56 445.00,246.00
             444.82,238.94 444.10,239.41 440.00,234.00 Z
           M 405.00,237.00
           C 405.00,237.00 404.00,237.00 404.00,237.00
             404.00,237.00 405.00,238.00 405.00,238.00
             405.00,238.00 405.00,237.00 405.00,237.00 Z
           M 363.00,245.00
           C 356.91,254.85 362.02,263.44 362.41,274.00
             362.41,274.00 359.00,314.00 359.00,314.00
             365.34,312.54 362.96,311.14 366.40,299.00
             368.24,290.95 366.18,286.88 366.40,280.00
             366.40,280.00 366.40,272.00 366.40,272.00
             366.40,272.00 366.40,262.00 366.40,262.00
             366.25,258.46 364.10,248.55 363.00,245.00 Z
           M 413.00,250.00
           C 411.53,252.77 411.93,252.74 414.00,255.00
             414.00,255.00 413.00,250.00 413.00,250.00 Z
           M 456.00,258.00
           C 453.11,263.03 457.89,265.32 461.92,267.00
             459.14,274.81 461.09,274.55 461.92,282.00
             462.15,285.20 461.70,289.08 462.54,292.00
             462.54,292.00 467.00,302.00 467.00,302.00
             467.00,302.00 465.00,302.00 465.00,302.00
             465.00,302.00 466.00,305.00 466.00,305.00
             465.32,305.24 464.66,305.14 463.57,306.00
             462.05,307.19 459.17,312.97 459.72,314.88
             460.25,316.69 462.48,318.02 463.11,319.30
             464.23,321.60 462.00,322.23 460.12,321.12
             458.01,319.87 457.64,318.13 457.00,316.00
             457.00,316.00 452.48,317.17 452.48,317.17
             452.48,317.17 445.15,331.09 445.15,331.09
             445.15,331.09 445.15,337.00 445.15,337.00
             447.11,337.54 449.86,338.57 452.00,338.32
             454.15,338.07 456.21,336.80 458.00,335.66
             466.69,330.11 465.38,328.35 471.00,321.00
             476.64,325.63 477.22,318.89 479.97,315.13
             482.48,311.68 485.37,311.21 486.79,308.66
             488.34,305.88 486.82,301.84 486.00,299.00
             481.99,298.87 481.84,298.79 479.00,296.00
             477.17,298.01 473.40,301.66 470.74,298.41
             469.04,296.32 471.62,294.10 472.42,291.83
             473.18,289.68 473.03,285.39 473.00,283.00
             472.97,280.96 472.98,278.96 472.28,277.00
             470.61,272.36 459.90,261.82 456.00,258.00 Z
           M 445.00,310.00
           C 448.06,307.92 447.33,307.03 449.51,304.68
             449.51,304.68 453.04,301.53 453.04,301.53
             457.04,296.72 456.36,290.70 456.47,285.00
             456.52,282.41 456.71,278.74 454.30,277.01
             454.30,277.01 441.00,276.00 441.00,276.00
             440.39,280.63 442.10,281.01 444.00,285.00
             444.00,285.00 434.00,287.00 434.00,287.00
             434.00,287.00 437.00,293.00 437.00,293.00
             437.00,293.00 427.85,292.00 427.85,292.00
             427.69,293.53 427.24,294.28 427.85,295.96
             428.56,299.03 435.91,305.37 439.00,306.09
             441.36,306.64 442.90,305.82 445.00,305.00
             445.00,305.00 445.00,310.00 445.00,310.00 Z
           M 481.00,287.00
           C 481.00,287.00 479.00,291.00 479.00,291.00
             479.00,291.00 481.00,287.00 481.00,287.00 Z
           M 464.00,309.00
           C 468.39,311.49 468.43,313.46 465.00,317.00
             463.07,313.27 462.98,313.08 464.00,309.00 Z
           M 461.00,327.00
           C 461.00,327.00 463.00,327.00 463.00,327.00
             463.00,327.00 463.00,331.00 463.00,331.00
             463.00,331.00 461.00,327.00 461.00,327.00 Z
           M 437.00,330.00
           C 432.58,329.26 430.66,328.28 429.00,333.00
             432.80,332.90 434.69,333.31 437.00,330.00 Z
           M 359.00,334.00
           C 359.00,334.00 358.00,334.00 358.00,334.00
             358.00,334.00 359.00,335.00 359.00,335.00
             359.00,335.00 359.00,334.00 359.00,334.00 Z
           M 423.00,346.00
           C 420.25,340.46 423.07,338.61 411.00,336.00
             411.00,336.00 404.00,351.00 404.00,351.00
             412.34,354.21 417.27,352.66 423.00,346.00 Z
           M 402.00,357.00
           C 402.00,357.00 401.00,357.00 401.00,357.00
             401.00,357.00 402.00,358.00 402.00,358.00
             402.00,358.00 402.00,357.00 402.00,357.00 Z
           M 401.00,359.00
           C 401.00,359.00 400.00,359.00 400.00,359.00
             400.00,359.00 401.00,360.00 401.00,360.00
             401.00,360.00 401.00,359.00 401.00,359.00 Z
           M 615.00,394.00
           C 617.97,391.93 622.32,385.57 616.85,383.69
             614.63,382.93 611.16,384.30 609.00,385.00
             609.00,385.00 609.00,388.00 609.00,388.00
             612.95,389.66 613.68,389.83 615.00,394.00 Z
           M 631.00,388.00
           C 629.11,384.65 628.76,384.63 625.00,384.00
             626.38,387.54 627.40,387.38 631.00,388.00 Z
           M 419.00,387.00
           C 419.00,387.00 418.00,387.00 418.00,387.00
             418.00,387.00 419.00,388.00 419.00,388.00
             419.00,388.00 419.00,387.00 419.00,387.00 Z
           M 414.00,389.00
           C 408.18,387.76 408.87,389.68 404.00,390.42
             401.62,390.79 398.76,389.80 397.13,392.33
             396.26,394.01 396.99,401.50 397.13,404.00
             397.13,404.00 402.00,402.00 402.00,402.00
             399.41,396.11 405.86,394.38 404.95,400.02
             404.95,400.02 404.00,403.00 404.00,403.00
             404.00,403.00 411.00,403.00 411.00,403.00
             410.47,398.53 412.25,393.13 414.00,389.00 Z
           M 433.00,388.00
           C 433.00,388.00 428.00,390.00 428.00,390.00
             428.00,390.00 433.00,388.00 433.00,388.00 Z
           M 426.00,391.00
           C 426.00,391.00 422.00,391.00 422.00,391.00
             422.26,393.14 422.83,395.61 421.22,397.40
             418.60,400.32 416.01,397.15 414.00,402.00
             414.00,402.00 427.00,399.00 427.00,399.00
             427.00,399.00 426.00,391.00 426.00,391.00 Z
           M 445.00,392.00
           C 445.00,392.00 443.00,392.00 443.00,392.00
             443.00,392.00 441.00,396.00 441.00,396.00
             444.01,394.92 443.81,394.96 445.00,392.00 Z
           M 446.00,398.00
           C 446.00,398.00 445.00,403.00 445.00,403.00
             445.00,403.00 449.00,403.00 449.00,403.00
             449.00,403.00 446.00,398.00 446.00,398.00 Z
           M 393.00,400.00
           C 393.00,400.00 387.00,401.00 387.00,401.00
             388.20,404.42 388.46,404.38 392.00,405.00
             392.00,405.00 393.00,400.00 393.00,400.00 Z
           M 699.00,408.00
           C 697.05,404.84 696.67,404.88 693.00,405.00
             695.23,413.30 698.03,409.80 701.16,414.27
             704.15,418.56 701.16,422.56 709.00,425.00
             709.95,436.14 714.05,436.57 718.60,445.00
             720.95,449.35 723.08,455.11 728.05,457.00
             727.81,458.89 727.51,460.09 728.05,462.00
             728.05,462.00 735.68,476.89 735.68,476.89
             738.26,480.53 741.08,482.31 744.00,478.00
             751.53,480.34 751.17,480.40 759.00,479.00
             759.00,479.00 756.41,472.00 756.41,472.00
             756.41,472.00 755.26,466.09 755.26,466.09
             755.26,466.09 751.01,459.91 751.01,459.91
             751.01,459.91 749.41,454.21 749.41,454.21
             749.41,454.21 745.85,449.63 745.85,449.63
             745.85,449.63 743.13,443.09 743.13,443.09
             743.13,443.09 736.13,435.56 736.13,435.56
             736.13,435.56 732.89,430.41 732.89,430.41
             732.89,430.41 723.00,422.00 723.00,422.00
             724.01,412.13 717.65,412.87 714.26,410.83
             711.80,409.36 711.12,407.00 707.95,406.36
             705.42,405.84 701.55,407.34 699.00,408.00 Z
           M 643.00,407.00
           C 641.97,410.57 642.94,411.28 646.00,413.00
             646.00,413.00 647.00,412.00 647.00,412.00
             647.00,412.00 643.00,407.00 643.00,407.00 Z
           M 350.00,422.00
           C 350.00,422.00 348.00,426.00 348.00,426.00
             348.00,426.00 351.00,426.00 351.00,426.00
             351.00,426.00 350.00,422.00 350.00,422.00 Z
           M 653.00,446.00
           C 651.11,443.89 650.61,444.04 648.00,445.00
             648.00,445.00 653.00,446.00 653.00,446.00 Z
           M 695.00,481.02
           C 695.00,481.02 705.00,481.02 705.00,481.02
             705.00,481.02 713.00,481.91 713.00,481.91
             715.09,482.05 718.81,482.20 720.57,480.98
             723.39,479.02 722.58,475.76 721.84,473.00
             720.64,468.52 715.82,458.43 711.81,456.08
             708.60,454.37 704.47,455.83 701.00,456.08
             701.00,456.08 683.00,456.08 683.00,456.08
             683.00,456.08 676.00,456.08 676.00,456.08
             672.93,455.27 670.80,452.68 668.00,451.08
             664.80,449.25 656.71,446.67 653.00,446.00
             653.00,446.00 653.58,449.83 653.58,449.83
             653.58,449.83 660.51,462.41 660.51,462.41
             660.51,462.41 664.00,464.00 664.00,464.00
             664.03,472.46 664.26,470.01 667.72,477.00
             668.81,479.19 669.27,482.10 672.13,482.58
             675.48,483.14 678.13,479.82 681.04,478.72
             683.99,477.60 685.39,478.50 688.00,478.00
             688.00,478.00 696.00,475.00 696.00,475.00
             696.00,475.00 695.00,481.02 695.00,481.02 Z
           M 233.00,667.00
           C 242.52,666.99 239.23,666.97 247.42,664.25
             249.61,663.52 251.50,663.70 253.52,662.17
             257.01,659.53 257.19,654.77 258.91,651.00
             258.91,651.00 262.73,644.00 262.73,644.00
             259.81,650.62 272.61,617.04 270.15,625.00
             271.38,621.01 269.49,617.46 271.98,613.17
             273.80,610.03 275.88,609.84 277.67,605.00
             277.67,605.00 281.13,590.17 281.13,590.17
             282.62,587.13 286.97,583.32 285.36,579.28
             284.56,577.27 280.35,574.81 280.00,581.00
             269.82,581.85 270.32,591.97 267.40,595.61
             265.70,597.74 263.57,597.98 261.18,601.17
             261.18,601.17 253.58,613.17 253.58,613.17
             252.84,614.92 252.98,616.75 251.84,618.79
             248.57,624.69 241.47,625.90 246.00,638.00
             239.88,641.59 235.64,647.75 237.00,655.00
             232.26,658.34 233.02,661.65 233.00,667.00 Z
           M 632.00,620.30
           C 632.00,620.30 615.58,623.02 615.58,623.02
             613.86,624.34 610.09,634.08 620.00,633.19
             620.00,633.19 645.00,633.19 645.00,633.19
             650.14,632.99 653.19,633.15 656.67,628.70
             658.42,626.43 659.67,623.31 656.67,621.43
             653.32,619.31 636.50,619.85 632.00,620.30 Z
           M 309.00,630.00
           C 309.00,630.00 308.00,630.00 308.00,630.00
             308.00,630.00 309.00,631.00 309.00,631.00
             309.00,631.00 309.00,630.00 309.00,630.00 Z
           M 303.00,634.00
           C 299.22,634.91 297.12,635.62 295.00,639.00
             295.00,639.00 299.00,637.00 299.00,637.00
             299.00,637.00 300.00,639.00 300.00,639.00
             300.00,639.00 301.00,639.00 301.00,639.00
             301.00,639.00 303.00,634.00 303.00,634.00 Z
           M 201.00,693.00
           C 198.74,693.13 197.20,693.15 195.02,693.97
             193.54,694.52 191.93,695.36 190.95,696.64
             184.90,704.58 196.24,712.70 200.40,701.96
             200.98,700.47 200.97,698.58 201.00,697.00
             201.00,697.00 201.00,693.00 201.00,693.00 Z
           M 640.06,705.51
           C 634.19,707.99 636.87,711.71 635.46,719.04
             633.46,729.43 634.73,730.62 634.33,733.00
             633.77,736.30 626.20,747.33 637.02,748.91
             637.02,748.91 641.00,748.91 641.00,748.91
             643.26,748.99 650.03,749.85 651.44,748.91
             653.54,747.55 654.05,742.38 654.41,740.00
             654.41,740.00 655.06,728.00 655.06,728.00
             655.91,721.92 657.22,725.11 657.00,713.00
             656.85,705.26 653.92,705.22 647.00,705.51
             647.00,705.51 640.06,705.51 640.06,705.51 Z
           M 647.00,767.00
           C 646.11,761.76 645.63,760.06 640.00,761.00
             641.99,765.06 642.66,765.71 647.00,767.00 Z
           M 505.00,770.00
           C 501.41,769.18 500.22,768.83 498.00,772.00
             498.00,772.00 505.00,770.00 505.00,770.00 Z
           M 466.00,786.00
           C 464.26,786.18 459.82,786.25 458.56,787.10
             456.78,788.30 453.20,796.27 460.00,799.00
             465.96,793.74 464.78,796.76 466.00,786.00 Z
           M 585.00,866.00
           C 580.40,863.87 572.06,862.55 567.00,863.00
             570.07,868.61 581.77,874.02 585.00,866.00 Z
           M 579.00,880.00
           C 576.90,878.52 573.96,876.24 571.21,876.50
             567.90,876.82 561.18,884.43 560.84,888.00
             560.53,891.21 564.38,897.00 566.00,900.00
             575.37,896.95 573.20,894.99 575.78,887.00
             576.60,884.47 577.79,882.35 579.00,880.00 Z" />
</svg>