<?xml version="1.0" encoding="UTF-8" standalone="no"?>
<!DOCTYPE svg PUBLIC "-//W3C//DTD SVG 20010904//EN"
              "http://www.w3.org/TR/2001/REC-SVG-20010904/DTD/svg10.dtd">

<svg xmlns="http://www.w3.org/2000/svg"
     width="3.33333in" height="3.33333in"
     viewBox="0 0 1000 1000">
  <path id="Sélection #50"
        fill="none" stroke="black" stroke-width="1"
        d="M 248.00,573.00
           C 245.14,573.90 239.93,577.16 237.39,575.87
             234.06,574.18 231.36,562.71 230.29,559.00
             224.98,540.50 222.78,523.21 223.00,504.00
             223.15,491.49 226.60,474.00 230.28,462.00
             231.25,458.87 234.25,449.56 236.07,447.32
             239.38,443.24 242.43,447.82 245.82,446.68
             248.47,445.80 253.56,436.70 255.18,434.00
             256.18,432.33 258.01,429.58 257.73,427.58
             257.23,423.92 252.39,422.12 254.14,417.00
             255.24,413.77 260.53,407.72 262.87,405.00
             270.48,396.15 277.74,389.72 287.00,382.65
             304.08,369.62 322.33,361.57 343.00,356.12
             347.50,354.93 359.75,351.67 363.94,352.18
             370.09,352.93 365.40,358.25 369.33,360.98
             371.86,362.74 385.33,363.14 389.00,363.25
             391.58,363.33 395.19,363.37 396.54,360.69
             398.09,357.62 395.36,353.04 401.06,352.15
             404.82,351.56 414.07,353.65 418.00,354.63
             433.86,358.57 443.45,362.48 458.00,369.75
             474.50,378.00 486.10,386.79 498.99,400.00
             501.70,402.78 510.49,412.80 511.78,415.98
             513.87,421.12 508.53,420.39 507.23,423.31
             506.23,425.56 508.24,429.00 509.26,431.00
             510.90,434.22 516.40,444.44 519.32,445.88
             523.68,448.01 527.65,441.47 531.53,450.02
             533.80,455.01 537.16,467.37 538.42,473.00
             544.02,497.88 544.95,518.82 540.00,544.00
             538.38,552.25 535.74,565.93 531.47,572.98
             530.18,575.12 528.69,577.15 525.97,577.11
             523.74,577.42 522.10,575.67 519.81,577.11
             517.08,578.40 510.14,589.77 508.50,592.96
             503.77,602.14 515.31,599.17 509.97,608.00
             506.56,613.64 497.84,622.21 493.00,627.00
             476.87,642.94 458.06,653.47 437.00,661.42
             428.61,664.59 414.87,668.83 406.00,668.98
             404.17,669.02 401.09,669.13 399.59,667.98
             396.17,665.36 399.90,661.19 390.00,661.01
             386.55,660.94 372.18,659.79 370.31,661.01
             366.18,663.75 370.17,670.85 362.00,670.77
             355.56,670.71 341.35,667.10 335.00,665.00
             311.49,657.23 294.80,647.39 276.00,631.27
             270.47,626.53 256.95,613.98 253.72,608.00
             249.71,600.61 259.26,602.71 259.05,596.95
             259.05,596.95 248.00,573.00 248.00,573.00 Z
           M 473.00,383.00
           C 473.00,383.00 452.00,369.86 452.00,369.86
             452.00,369.86 443.39,368.61 443.39,368.61
             443.39,368.61 436.24,380.69 436.24,380.69
             436.24,380.69 426.00,383.00 426.00,383.00
             426.00,383.00 441.00,389.97 441.00,389.97
             451.41,395.18 461.11,401.94 470.00,409.44
             490.65,426.86 505.99,450.84 512.84,477.00
             512.84,477.00 514.51,487.00 514.51,487.00
             514.51,487.00 516.92,500.00 516.92,500.00
             516.92,500.00 516.92,518.00 516.92,518.00
             516.97,527.73 515.06,536.56 512.88,546.00
             511.99,549.87 509.38,557.58 510.00,561.00
             512.41,555.50 519.84,537.22 520.74,532.00
             521.45,527.85 520.34,517.53 522.22,514.30
             525.57,508.53 536.80,513.33 539.40,507.72
             540.11,506.21 540.02,502.73 539.99,501.00
             539.81,493.03 537.36,479.75 535.14,472.00
             534.37,469.31 532.79,463.24 529.79,462.34
             525.24,460.96 520.54,471.36 514.63,465.57
             511.74,462.73 509.14,455.74 507.37,452.00
             503.31,443.42 498.90,434.72 493.37,427.00
             493.37,427.00 483.87,414.66 483.87,414.66
             479.56,410.73 467.50,401.21 464.73,396.99
             463.53,395.15 460.77,387.41 460.00,385.00
             465.38,388.64 470.00,390.09 473.00,383.00 Z
           M 424.00,381.00
           C 424.00,381.00 410.00,375.84 410.00,375.84
             397.11,372.30 374.68,371.90 362.00,375.84
             357.23,377.43 354.27,377.11 350.00,380.00
             370.27,377.31 368.94,376.97 390.00,377.00
             396.44,377.01 405.65,378.17 412.00,379.45
             415.96,380.24 420.02,382.11 424.00,381.00 Z
           M 335.00,384.00
           C 335.00,384.00 334.00,384.00 334.00,384.00
             334.00,384.00 335.00,385.00 335.00,385.00
             335.00,385.00 335.00,384.00 335.00,384.00 Z
           M 479.00,388.00
           C 476.64,391.68 478.20,393.36 480.00,397.00
             480.00,397.00 483.00,396.00 483.00,396.00
             483.00,396.00 479.00,388.00 479.00,388.00 Z
           M 373.00,393.28
           C 362.95,394.74 355.88,395.55 346.00,398.74
             317.26,408.05 292.70,428.43 278.31,455.00
             262.22,484.69 259.11,525.44 271.46,557.00
             288.64,600.90 334.08,631.46 381.00,632.00
             397.49,632.18 414.80,628.29 430.00,621.99
             442.96,616.61 458.24,606.04 467.96,596.00
             518.32,543.94 511.93,456.69 452.00,414.72
             440.98,407.01 427.99,400.71 415.00,397.15
             402.31,393.68 386.11,392.07 373.00,393.28 Z
           M 527.00,524.00
           C 527.00,524.00 526.00,524.00 526.00,524.00
             526.00,524.00 527.00,525.00 527.00,525.00
             527.00,525.00 527.00,524.00 527.00,524.00 Z
           M 508.00,564.00
           C 508.00,564.00 507.00,564.00 507.00,564.00
             507.00,564.00 508.00,565.00 508.00,565.00
             508.00,565.00 508.00,564.00 508.00,564.00 Z" />
</svg>