<?xml version="1.0" encoding="UTF-8" standalone="no"?>
<!DOCTYPE svg PUBLIC "-//W3C//DTD SVG 20010904//EN"
              "http://www.w3.org/TR/2001/REC-SVG-20010904/DTD/svg10.dtd">

<svg xmlns="http://www.w3.org/2000/svg"
     width="3.33333in" height="3.33333in"
     viewBox="0 0 1000 1000">
  <path id="Sélection #50"
        fill="none" stroke="black" stroke-width="1"
        d="M 281.00,852.00
           C 279.77,848.97 272.14,846.81 269.00,845.24
             261.05,841.27 255.13,836.61 249.17,830.00
             249.17,830.00 231.91,808.29 231.91,808.29
             224.70,801.52 206.75,789.03 198.00,782.98
             198.00,782.98 143.00,747.21 143.00,747.21
             133.96,741.71 122.93,743.87 108.00,735.56
             82.95,721.63 67.19,700.14 61.80,672.00
             59.82,661.61 59.88,649.59 60.00,639.00
             60.38,606.59 75.33,568.18 88.69,539.00
             106.58,499.94 133.44,455.21 160.61,422.00
             160.61,422.00 180.83,400.00 180.83,400.00
             195.80,383.46 211.73,367.62 229.00,353.46
             259.49,328.48 295.95,304.35 331.00,286.26
             331.00,286.26 356.00,274.00 356.00,274.00
             358.97,272.73 366.35,270.14 367.98,267.61
             369.51,265.23 369.05,255.24 369.00,252.00
             368.84,243.36 365.82,244.26 364.20,238.00
             364.20,238.00 364.20,214.00 364.20,214.00
             363.99,207.37 362.29,200.59 363.13,194.00
             363.73,189.32 365.90,188.12 366.86,184.00
             366.86,184.00 366.86,170.00 366.86,170.00
             367.02,160.68 370.31,152.18 381.00,152.00
             381.00,152.00 396.00,152.00 396.00,152.00
             398.20,156.92 401.04,159.47 402.32,165.00
             402.32,165.00 403.34,180.00 403.34,180.00
             404.31,184.86 406.95,186.34 407.78,191.00
             407.78,191.00 409.78,208.00 409.78,208.00
             409.78,208.00 409.78,219.00 409.78,219.00
             409.78,219.00 410.91,231.00 410.91,231.00
             411.39,239.89 407.14,239.41 405.63,244.04
             405.06,245.79 406.10,260.28 407.02,261.85
             409.48,266.01 417.67,265.79 422.00,266.43
             436.64,268.60 447.22,270.96 461.00,276.60
             475.01,282.35 482.77,295.32 494.00,304.68
             501.62,311.03 523.52,322.95 533.00,327.14
             533.00,327.14 549.00,333.81 549.00,333.81
             560.10,339.41 560.76,345.81 577.00,346.00
             577.00,346.00 588.00,346.00 588.00,346.00
             609.40,346.03 637.44,353.25 656.00,363.87
             661.45,366.99 669.60,372.79 671.49,379.00
             671.49,379.00 672.58,387.00 672.58,387.00
             673.07,390.77 673.44,395.49 671.69,398.98
             669.67,403.00 666.03,404.84 662.00,406.30
             655.82,408.54 641.47,411.83 635.00,411.99
             632.32,412.05 622.84,411.15 623.62,415.95
             624.07,418.68 628.80,420.29 631.00,421.31
             637.88,424.50 645.28,428.16 651.00,433.18
             666.10,446.46 671.82,466.27 670.96,486.00
             667.50,565.74 617.86,642.14 563.00,697.00
             563.00,697.00 548.00,711.83 548.00,711.83
             522.41,734.97 490.16,756.10 462.00,776.42
             425.61,802.69 393.20,827.60 350.00,842.00
             350.00,842.00 325.00,848.90 325.00,848.90
             317.03,851.01 321.00,851.98 311.00,852.00
             311.00,852.00 281.00,852.00 281.00,852.00 Z
           M 414.00,295.00
           C 409.32,296.00 408.17,296.68 406.00,301.00
             410.68,300.00 411.83,299.32 414.00,295.00 Z
           M 380.00,302.00
           C 380.00,302.00 370.00,299.00 370.00,299.00
             372.39,303.35 375.66,305.06 380.00,302.00 Z" />
</svg>