<?xml version="1.0" encoding="UTF-8" standalone="no"?>
<!DOCTYPE svg PUBLIC "-//W3C//DTD SVG 20010904//EN"
              "http://www.w3.org/TR/2001/REC-SVG-20010904/DTD/svg10.dtd">

<svg xmlns="http://www.w3.org/2000/svg"
     width="3.33333in" height="3.33333in"
     viewBox="0 0 1000 1000">
  <path id="Sélection #50"
        fill="none" stroke="black" stroke-width="1"
        d="M 348.00,525.00
           C 342.74,518.67 335.45,519.45 335.93,508.00
             336.43,496.23 328.48,487.02 343.01,475.53
             353.92,466.90 367.66,466.32 380.00,471.86
             388.77,475.81 393.24,479.11 393.62,489.00
             393.93,497.29 399.37,502.01 396.21,513.00
             392.69,525.26 379.43,534.14 367.00,534.91
             358.22,535.45 351.05,531.68 344.00,527.00
             344.00,527.00 348.00,525.00 348.00,525.00 Z
           M 374.00,502.00
           C 379.44,498.62 381.59,500.47 382.85,498.39
             383.80,496.83 382.56,493.74 382.24,492.00
             381.88,490.05 381.88,487.94 381.11,486.09
             378.20,479.06 369.62,477.85 363.00,478.01
             352.84,478.26 349.88,483.38 351.30,493.00
             351.70,495.74 353.19,501.71 356.17,502.66
             359.40,503.70 360.64,498.85 364.10,497.92
             367.45,497.03 371.33,500.28 374.00,502.00 Z
           M 379.85,518.90
           C 379.85,518.90 373.00,522.36 373.00,522.36
             370.96,523.23 369.16,523.51 367.00,523.85
             359.40,525.02 361.61,528.00 364.15,528.65
             366.30,529.20 375.86,528.82 377.98,528.03
             382.64,526.30 385.62,520.23 379.85,518.90 Z
           M 359.00,526.00
           C 359.00,526.00 355.00,528.00 355.00,528.00
             355.00,528.00 359.00,526.00 359.00,526.00 Z" />
</svg>